<svg width="97" height="48" viewBox="0 0 97 48" fill="none" xmlns="http://www.w3.org/2000/svg">
<path d="M7.24788 32.0175C5.85515 32.0175 4.61401 31.7694 3.52446 31.2733C2.43491 30.7674 1.57274 30.0231 0.937962 29.0405C0.312654 28.0482 0 26.8126 0 25.3338C0 24.0885 0.222647 23.0427 0.667942 22.1963C1.11324 21.3499 1.7196 20.6689 2.48702 20.1532C3.25444 19.6376 4.12608 19.2484 5.10194 18.9858C6.08728 18.7231 7.11998 18.5382 8.20006 18.4312C9.46962 18.295 10.4929 18.1686 11.2697 18.0518C12.0466 17.9253 12.6104 17.7405 12.9609 17.4973C13.3115 17.254 13.4867 16.8941 13.4867 16.4174V16.3298C13.4867 15.4056 13.2025 14.6905 12.6341 14.1846C12.0751 13.6787 11.2792 13.4258 10.2465 13.4258C9.15697 13.4258 8.29006 13.6738 7.64581 14.17C7.00155 14.6565 6.5752 15.2694 6.36677 16.0088L0.767423 15.5418C1.05165 14.1797 1.61064 13.0026 2.44438 12.0102C3.27813 11.0081 4.35347 10.2396 5.6704 9.70449C6.99681 9.15967 8.53166 8.88727 10.2749 8.88727C11.4877 8.88727 12.6483 9.0332 13.7568 9.32506C14.8747 9.61693 15.8648 10.0693 16.727 10.6822C17.5986 11.2951 18.2855 12.0832 18.7877 13.0463C19.2898 13.9998 19.5409 15.1429 19.5409 16.4757V31.5943H13.7994V28.486H13.6289C13.2783 29.1864 12.8093 29.8042 12.2219 30.3393C11.6345 30.8646 10.9287 31.2781 10.1044 31.5797C9.28014 31.8716 8.32796 32.0175 7.24788 32.0175ZM8.98169 27.7271C9.87228 27.7271 10.6587 27.5471 11.3408 27.1872C12.023 26.8175 12.5583 26.3213 12.9467 25.6987C13.3352 25.076 13.5294 24.3707 13.5294 23.5826V21.2039C13.3399 21.3304 13.0794 21.4472 12.7478 21.5542C12.4256 21.6515 12.0609 21.7439 11.6535 21.8314C11.2461 21.9093 10.8387 21.9822 10.4313 22.0503C10.0239 22.1087 9.65437 22.1622 9.32277 22.2109C8.61219 22.3179 7.99162 22.4881 7.46106 22.7216C6.93049 22.9551 6.51836 23.2713 6.22465 23.6702C5.93095 24.0593 5.7841 24.5458 5.7841 25.1295C5.7841 25.9759 6.08254 26.6229 6.67942 27.0704C7.28578 27.5082 8.05321 27.7271 8.98169 27.7271Z" fill="#1848DA"/>
<path d="M40.7993 15.571L35.2568 15.9212C35.1621 15.4348 34.9584 14.997 34.6457 14.6078C34.3331 14.2089 33.921 13.8927 33.4093 13.6592C32.9072 13.416 32.3056 13.2944 31.6045 13.2944C30.6665 13.2944 29.8754 13.4987 29.2311 13.9073C28.5869 14.3062 28.2648 14.8413 28.2648 15.5126C28.2648 16.0477 28.4732 16.5001 28.8901 16.8698C29.3069 17.2395 30.0223 17.5362 31.036 17.7599L34.9868 18.5772C37.1091 19.0247 38.6913 19.7446 39.7335 20.737C40.7757 21.7293 41.2967 23.033 41.2967 24.6479C41.2967 26.117 40.8751 27.4061 40.0319 28.5151C39.1982 29.6242 38.0518 30.4901 36.5927 31.1127C35.1431 31.7256 33.4709 32.0321 31.576 32.0321C28.6864 32.0321 26.3841 31.4143 24.6692 30.1788C22.9639 28.9335 21.9643 27.2407 21.6706 25.1003L27.6252 24.7793C27.8053 25.6841 28.2411 26.3748 28.9327 26.8515C29.6243 27.3185 30.5102 27.552 31.5903 27.552C32.6514 27.552 33.5041 27.3428 34.1483 26.9245C34.8021 26.4964 35.1337 25.9467 35.1431 25.2754C35.1337 24.7112 34.9016 24.2491 34.4468 23.8891C33.992 23.5194 33.2909 23.2373 32.3435 23.0427L28.5632 22.2692C26.4315 21.8314 24.8445 21.0726 23.8023 19.9927C22.7696 18.9128 22.2533 17.5362 22.2533 15.8628C22.2533 14.423 22.6323 13.1825 23.3902 12.1416C24.1576 11.1006 25.233 10.2979 26.6162 9.73367C28.009 9.1694 29.6385 8.88727 31.505 8.88727C34.262 8.88727 36.4317 9.48559 38.0139 10.6822C39.6056 11.8789 40.5341 13.5085 40.7993 15.571Z" fill="#1848DA"/>
<path d="M43.5082 40V9.17913H49.477V12.9442H49.7471C50.0123 12.341 50.3961 11.7281 50.8982 11.1054C51.4098 10.4731 52.073 9.94771 52.8878 9.52937C53.7121 9.1013 54.7353 8.88727 55.9575 8.88727C57.5492 8.88727 59.0177 9.31534 60.3631 10.1715C61.7084 11.0179 62.7838 12.2972 63.5891 14.0095C64.3944 15.712 64.7971 17.8475 64.7971 20.4159C64.7971 22.9162 64.4039 25.0274 63.6175 26.7494C62.8406 28.4616 61.7795 29.7604 60.4341 30.6458C59.0983 31.5213 57.6013 31.9591 55.9433 31.9591C54.7685 31.9591 53.7689 31.7597 52.9447 31.3608C52.1299 30.9619 51.4619 30.4609 50.9408 29.8577C50.4197 29.2448 50.0218 28.627 49.7471 28.0044H49.5623V40H43.5082ZM49.4344 20.3867C49.4344 21.7196 49.6144 22.8822 49.9744 23.8745C50.3345 24.8668 50.8556 25.6403 51.5377 26.1948C52.2199 26.7396 53.0489 27.012 54.0247 27.012C55.0101 27.012 55.8438 26.7348 56.526 26.1802C57.2081 25.616 57.7245 24.8377 58.075 23.8453C58.4351 22.8432 58.6151 21.6904 58.6151 20.3867C58.6151 19.0928 58.4398 17.9545 58.0892 16.9719C57.7387 15.9893 57.2223 15.2207 56.5402 14.6662C55.858 14.1116 55.0195 13.8344 54.0247 13.8344C53.0394 13.8344 52.2057 14.1019 51.5235 14.637C50.8508 15.1721 50.3345 15.9309 49.9744 16.9135C49.6144 17.8961 49.4344 19.0539 49.4344 20.3867Z" fill="#1848DA"/>
<path d="M67.2324 31.5943V9.17913H73.2865V31.5943H67.2324ZM70.2736 6.28968C69.3736 6.28968 68.6014 5.98322 67.9572 5.3703C67.3224 4.74766 67.005 4.00341 67.005 3.13754C67.005 2.28141 67.3224 1.54688 67.9572 0.933967C68.6014 0.311322 69.3736 0 70.2736 0C71.1737 0 71.9411 0.311322 72.5759 0.933967C73.2202 1.54688 73.5423 2.28141 73.5423 3.13754C73.5423 4.00341 73.2202 4.74766 72.5759 5.3703C71.9411 5.98322 71.1737 6.28968 70.2736 6.28968Z" fill="#1848DA"/>
<path d="M84.5791 31.9591C82.9211 31.9591 81.4194 31.5213 80.0741 30.6458C78.7382 29.7604 77.677 28.4616 76.8907 26.7494C76.1138 25.0274 75.7253 22.9162 75.7253 20.4159C75.7253 17.8475 76.128 15.712 76.9333 14.0095C77.7386 12.2972 78.8092 11.0179 80.1451 10.1715C81.4905 9.31534 82.9637 8.88727 84.5649 8.88727C85.7871 8.88727 86.8056 9.1013 87.6204 9.52937C88.4446 9.94771 89.1079 10.4731 89.61 11.1054C90.1216 11.7281 90.5101 12.341 90.7753 12.9442H90.9601V1.70741H97V31.5943H91.0312V28.0044H90.7753C90.4911 28.627 90.0885 29.2448 89.5674 29.8577C89.0557 30.4609 88.3878 30.9619 87.5635 31.3608C86.7487 31.7597 85.7539 31.9591 84.5791 31.9591ZM86.4977 27.012C87.4735 27.012 88.2978 26.7396 88.9705 26.1948C89.6526 25.6403 90.1737 24.8668 90.5337 23.8745C90.9032 22.8822 91.088 21.7196 91.088 20.3867C91.088 19.0539 90.908 17.8961 90.548 16.9135C90.1879 15.9309 89.6668 15.1721 88.9847 14.637C88.3025 14.1019 87.4735 13.8344 86.4977 13.8344C85.5029 13.8344 84.6644 14.1116 83.9822 14.6662C83.3001 15.2207 82.7837 15.9893 82.4332 16.9719C82.0826 17.9545 81.9073 19.0928 81.9073 20.3867C81.9073 21.6904 82.0826 22.8432 82.4332 23.8453C82.7932 24.8377 83.3095 25.616 83.9822 26.1802C84.6644 26.7348 85.5029 27.012 86.4977 27.012Z" fill="#1848DA"/>
<path d="M58.1768 40.8011C58.1768 42.164 57.9316 43.1795 57.4413 43.8477C56.9562 44.5159 56.2681 44.85 55.3771 44.85C54.5176 44.85 53.8559 44.5239 53.392 43.8716V48H52V36.0841H53.2654L53.3366 37.0386C53.8059 36.2962 54.4781 35.925 55.3533 35.925C56.2919 35.925 56.9931 36.2538 57.4571 36.9114C57.9211 37.5689 58.161 38.5527 58.1768 39.8625V40.8011ZM56.7848 39.9977C56.7848 39.0326 56.6372 38.322 56.3419 37.8659C56.0467 37.4045 55.5722 37.1739 54.9184 37.1739C54.2487 37.1739 53.7399 37.5106 53.392 38.1841V42.6625C53.7347 43.3201 54.2487 43.6489 54.9342 43.6489C55.5669 43.6489 56.0309 43.4208 56.3261 42.9648C56.6267 42.5034 56.7796 41.8008 56.7848 40.8568V39.9977Z" fill="black"/>
<path d="M63.4134 44.6909C63.329 44.5053 63.2684 44.1924 63.2315 43.7523C62.7359 44.4841 62.1032 44.85 61.3334 44.85C60.5583 44.85 59.952 44.6326 59.5143 44.1977C59.082 43.7576 58.8658 43.1398 58.8658 42.3443C58.8658 41.4693 59.1611 40.7746 59.7516 40.2602C60.3421 39.7458 61.1515 39.4833 62.1796 39.4727H63.2078V38.558C63.2078 38.0436 63.0944 37.6777 62.8677 37.4602C62.641 37.2428 62.2956 37.1341 61.8316 37.1341C61.4098 37.1341 61.0671 37.2614 60.8035 37.5159C60.5399 37.7652 60.408 38.0833 60.408 38.4705H59.0082C59.0082 38.0303 59.1374 37.6114 59.3957 37.2136C59.6541 36.8106 60.0021 36.4951 60.4397 36.267C60.8773 36.039 61.365 35.925 61.9028 35.925C62.7781 35.925 63.4424 36.1451 63.8958 36.5852C64.3545 37.0201 64.5892 37.6564 64.5997 38.4943V42.8375C64.605 43.5004 64.6946 44.0758 64.8686 44.5636V44.6909H63.4134ZM61.5469 43.5693C61.8896 43.5693 62.2165 43.4739 62.5276 43.283C62.8387 43.092 63.0654 42.8534 63.2078 42.567V40.5148H62.4169C61.7525 40.5254 61.2279 40.6765 60.843 40.9682C60.4581 41.2545 60.2657 41.6576 60.2657 42.1773C60.2657 42.6652 60.3632 43.0205 60.5583 43.2432C60.7534 43.4606 61.0829 43.5693 61.5469 43.5693Z" fill="black"/>
<path d="M69.3381 37.4045C69.143 37.3674 68.9321 37.3489 68.7054 37.3489C67.9883 37.3489 67.4874 37.7439 67.2027 38.5341V44.6909H65.8028V36.0841H67.1631L67.1869 36.9591C67.5612 36.2697 68.0911 35.925 68.7765 35.925C68.998 35.925 69.1825 35.9621 69.3302 36.0364L69.3381 37.4045Z" fill="black"/>
<path d="M71.9964 34V36.0841H73.2855V37.2216H71.9964V42.5591C71.9964 42.8985 72.0517 43.1557 72.1625 43.3307C72.2732 43.5057 72.463 43.5932 72.7319 43.5932C72.9164 43.5932 73.1036 43.5614 73.2934 43.4977L73.2776 44.6909C72.9613 44.797 72.637 44.85 72.3048 44.85C71.7512 44.85 71.3294 44.6511 71.0394 44.2534C70.7494 43.8557 70.6044 43.2936 70.6044 42.567V37.2216H69.2995V36.0841H70.6044V34H71.9964Z" fill="black"/>
<path d="M75.3032 36.0841L75.3428 37.0148C75.8858 36.2883 76.5792 35.925 77.4228 35.925C78.936 35.925 79.7032 36.9405 79.7243 38.9716V44.6909H78.3323V39.0352C78.3323 38.3617 78.2189 37.8845 77.9922 37.6034C77.7708 37.317 77.436 37.1739 76.9878 37.1739C76.6398 37.1739 76.3261 37.2905 76.0467 37.5239C75.7725 37.7572 75.551 38.0621 75.3823 38.4386V44.6909H73.9824V36.0841H75.3032Z" fill="black"/>
<path d="M83.9169 44.85C82.8518 44.85 82.0346 44.5318 81.4652 43.8955C80.8957 43.2538 80.6057 42.3152 80.5952 41.0795V40.0375C80.5952 38.7542 80.872 37.7492 81.4256 37.0227C81.9845 36.2909 82.7622 35.925 83.7587 35.925C84.7605 35.925 85.5092 36.2458 86.0048 36.8875C86.5004 37.5292 86.7535 38.5288 86.7641 39.8864V40.8091H81.9871V41.008C81.9871 41.9307 82.1585 42.6015 82.5012 43.0205C82.8492 43.4394 83.3475 43.6489 83.996 43.6489C84.4072 43.6489 84.7684 43.572 85.0795 43.4182C85.3958 43.2591 85.6911 43.0098 85.9653 42.6705L86.6929 43.5614C86.0865 44.4205 85.1612 44.85 83.9169 44.85ZM83.7587 37.1341C83.1787 37.1341 82.749 37.3356 82.4696 37.7386C82.1901 38.1364 82.032 38.7568 81.995 39.6H85.3642V39.4091C85.3273 38.5924 85.1797 38.0091 84.9213 37.6591C84.6682 37.3091 84.2807 37.1341 83.7587 37.1341Z" fill="black"/>
<path d="M91.0121 37.4045C90.817 37.3674 90.6061 37.3489 90.3794 37.3489C89.6623 37.3489 89.1614 37.7439 88.8767 38.5341V44.6909H87.4768V36.0841H88.8371L88.8609 36.9591C89.2352 36.2697 89.7651 35.925 90.4505 35.925C90.672 35.925 90.8565 35.9621 91.0042 36.0364L91.0121 37.4045Z" fill="black"/>
<path d="M95.6001 42.4875C95.6001 42.1852 95.4868 41.9254 95.2601 41.708C95.0333 41.4905 94.5957 41.236 93.9472 40.9443C93.1932 40.6314 92.6607 40.3636 92.3496 40.1409C92.0438 39.9182 91.8144 39.6663 91.6615 39.3852C91.5086 39.0989 91.4322 38.7595 91.4322 38.367C91.4322 37.667 91.6853 37.0864 92.1914 36.625C92.7029 36.1583 93.354 35.925 94.1449 35.925C94.978 35.925 95.6476 36.1689 96.1538 36.6568C96.6599 37.1447 96.913 37.7705 96.913 38.5341H95.521C95.521 38.147 95.3919 37.8182 95.1335 37.5477C94.8752 37.272 94.5456 37.1341 94.1449 37.1341C93.7337 37.1341 93.4094 37.2428 93.1721 37.4602C92.9401 37.6723 92.8241 37.9587 92.8241 38.3193C92.8241 38.6057 92.9085 38.8364 93.0772 39.0114C93.2512 39.1864 93.6651 39.417 94.3189 39.7034C95.3576 40.1117 96.0641 40.5121 96.4385 40.9045C96.8128 41.2917 97 41.7848 97 42.3841C97 43.1318 96.7443 43.7311 96.2328 44.1818C95.7214 44.6273 95.036 44.85 94.1765 44.85C93.2855 44.85 92.5631 44.5928 92.0095 44.0784C91.4559 43.564 91.1791 42.9117 91.1791 42.1216H92.5869C92.6027 42.5989 92.7477 42.9727 93.0219 43.2432C93.296 43.5136 93.6809 43.6489 94.1765 43.6489C94.6405 43.6489 94.9938 43.5455 95.2363 43.3386C95.4789 43.1265 95.6001 42.8428 95.6001 42.4875Z" fill="black"/>
</svg>
