<svg width="165" height="46" viewBox="0 0 165 46" fill="none" xmlns="http://www.w3.org/2000/svg">
<g clip-path="url(#clip0_104_430)">
<path d="M36.7046 33.8639C36.0908 34.9446 35.3666 35.9615 34.5417 36.8973L34.5638 36.9194L33.7979 37.6882C30.3879 41.1196 25.8486 43.0108 21.0147 43.0108C16.2005 43.0108 11.6735 41.1343 8.26841 37.7275C4.86334 34.3208 2.98772 29.7915 2.98772 24.9749C2.98772 24.6187 2.99754 24.2576 3.01964 23.899C3.02209 23.8499 3.02455 23.8008 3.02946 23.7492V23.7345C3.03191 23.7025 3.03437 23.6681 3.03682 23.6362V23.619C3.04173 23.5453 3.0491 23.4692 3.05646 23.3955C3.06137 23.3341 3.06628 23.2702 3.07365 23.2039C3.08347 23.1081 3.09329 23.0099 3.10311 22.9141C3.11047 22.8576 3.11538 22.7937 3.1252 22.7323C3.13502 22.6537 3.14484 22.5628 3.15712 22.4744C3.16448 22.4253 3.17185 22.3762 3.17921 22.3271C3.18903 22.246 3.20376 22.1551 3.21849 22.0667C3.22586 22.02 3.23568 21.966 3.24304 21.9144C3.25041 21.8702 3.25777 21.826 3.26759 21.7818C3.27741 21.7253 3.28969 21.659 3.30196 21.5951C3.31178 21.5386 3.32406 21.4772 3.33633 21.4158C3.35106 21.3446 3.36334 21.2758 3.38052 21.2021C3.48363 20.7109 3.61129 20.2172 3.75614 19.7357L3.76105 19.7235C3.77823 19.6596 3.79787 19.5957 3.81997 19.5343C3.83715 19.4803 3.85434 19.4263 3.87152 19.3698C3.97463 19.0554 4.08756 18.7361 4.20786 18.429C4.22504 18.3873 4.24223 18.3406 4.25941 18.2964C4.27905 18.2497 4.29624 18.2006 4.31833 18.149C4.34288 18.0901 4.36989 18.0238 4.39689 17.9574C4.41653 17.9083 4.44108 17.8518 4.46563 17.7978L4.47545 17.7732C4.50982 17.6995 4.54173 17.6234 4.5761 17.5497C4.60065 17.4932 4.6252 17.4392 4.65221 17.3851C5.10638 16.4027 5.65876 15.4546 6.28969 14.5654L6.3928 14.4254C6.46399 14.3272 6.53519 14.2289 6.60884 14.1356C6.64321 14.0914 6.68003 14.0422 6.71686 13.9956C6.79542 13.8924 6.87643 13.7917 6.95499 13.6935C7.00164 13.637 7.04828 13.5756 7.09738 13.5191C7.14157 13.465 7.19067 13.4085 7.23977 13.3496C7.28642 13.2931 7.33797 13.2341 7.38707 13.1777C7.44353 13.1138 7.5 13.0475 7.55646 12.9836L5.44026 10.8639C1.92962 14.7275 0 19.721 0 24.9724C0 30.5898 2.18494 35.8682 6.15466 39.8399C10.1244 43.8116 15.4002 45.9976 21.0147 45.9976C26.6465 45.9976 31.937 43.7968 35.9092 39.803C37.0434 38.6633 38.0426 37.4008 38.8846 36.0426L36.7046 33.8639Z" fill="#C8A35F"/>
<path d="M9.80791 36.1875C12.8005 39.1816 16.7825 40.8322 21.0149 40.8322C21.1475 40.8322 21.2801 40.8297 21.4127 40.8273C21.4789 40.8273 21.5428 40.8248 21.609 40.8223H21.6189C21.7171 40.8174 21.8128 40.8125 21.911 40.8076C21.9896 40.8027 22.0657 40.7978 22.1442 40.7929C22.1835 40.7904 22.2179 40.788 22.2498 40.7855L22.3038 40.7806C22.375 40.7757 22.4462 40.7683 22.5199 40.7609C22.5837 40.756 22.6426 40.7511 22.704 40.7437C22.7482 40.7388 22.7874 40.7339 22.8243 40.7315L22.9053 40.7216C22.9568 40.7143 23.0084 40.7094 23.0624 40.702C23.2588 40.6774 23.4503 40.6504 23.6393 40.6185C23.6933 40.6087 23.7449 40.5988 23.7964 40.5915L23.8136 40.589C23.8554 40.5816 23.8971 40.5743 23.9364 40.5669L23.956 40.562C24.01 40.5522 24.064 40.5423 24.118 40.5301C24.2604 40.503 24.4004 40.4736 24.5379 40.4416C24.6311 40.422 24.7244 40.3974 24.8177 40.3753L24.83 40.3729C24.8545 40.3679 24.8766 40.363 24.9012 40.3557C24.9699 40.3385 25.0313 40.3213 25.0951 40.3065C25.1491 40.2918 25.2007 40.2795 25.2498 40.2648C25.294 40.2525 25.3333 40.2427 25.3701 40.2304C25.4069 40.2206 25.4364 40.2132 25.4634 40.2034L25.4855 40.196C25.5248 40.1862 25.564 40.1739 25.6033 40.1616C25.6696 40.142 25.7261 40.1248 25.7825 40.1051C25.8292 40.0904 25.8685 40.0781 25.9126 40.0658C26.0452 40.0216 26.1778 39.9774 26.3079 39.9307C26.3447 39.9185 26.3791 39.9062 26.4135 39.8939L26.4405 39.8841C26.4871 39.8669 26.5288 39.8521 26.5681 39.8374C26.6344 39.8128 26.6909 39.7907 26.7498 39.7686C26.7989 39.749 26.8431 39.7342 26.8848 39.717C26.9658 39.6851 27.0395 39.6556 27.1131 39.6237L27.3341 39.5304C27.4028 39.5009 27.4716 39.4714 27.5354 39.442C27.5747 39.4248 27.6066 39.41 27.641 39.3953L27.6729 39.3805C27.7269 39.356 27.7809 39.329 27.8349 39.3044C28.1688 39.1447 28.4978 38.9753 28.8144 38.7935C28.8488 38.7739 28.8807 38.7542 28.9151 38.737C28.9887 38.6953 29.0624 38.651 29.1336 38.6093L29.4969 38.3858C29.6565 38.2826 29.8234 38.1745 30.0027 38.0517C30.0518 38.0173 30.1009 37.983 30.15 37.9486L30.1696 37.9338C30.2064 37.9068 30.2432 37.8823 30.2801 37.8552L30.2899 37.8479C30.3169 37.8282 30.3439 37.8086 30.3709 37.7889L30.3807 37.7815C30.4274 37.7496 30.4716 37.7152 30.5158 37.6808C30.5673 37.644 30.6164 37.6047 30.6631 37.5679C30.6974 37.5408 30.7244 37.5187 30.7539 37.4966L30.7883 37.4696C30.8374 37.4303 30.8889 37.391 30.938 37.3493C30.9896 37.3075 31.0411 37.2657 31.0902 37.2264L31.1025 37.2166C31.1982 37.138 31.2915 37.057 31.3873 36.9759C31.4167 36.9513 31.4437 36.9268 31.4732 36.8998L29.3545 34.7776C27.0346 36.7573 24.091 37.8405 21.0223 37.8405C13.9323 37.8405 8.16307 32.0684 8.16307 24.9748C8.16307 21.5165 9.51577 18.2718 11.9683 15.8377C13.1197 14.6956 14.4994 13.7696 15.9896 13.1334L13.7408 10.8835C12.3071 11.6278 10.9986 12.5832 9.84719 13.7278C6.82756 16.7269 5.16553 20.7182 5.16553 24.9724C5.16553 29.2094 6.81528 33.1909 9.80791 36.1875Z" fill="white"/>
<path d="M38.9999 21.0252C38.9999 15.4078 36.8149 10.1294 32.8452 6.15773C28.8755 2.18603 23.5972 0 17.9827 0C12.3509 0 7.06042 2.19831 3.0907 6.19457C1.95649 7.3318 0.95731 8.59675 0.112793 9.95504L2.29528 12.1386C2.90903 11.0579 3.63325 10.041 4.45813 9.10519L4.43603 9.08308L5.20199 8.31429C8.60952 4.88296 13.1513 2.99167 17.9851 2.99167C22.7994 2.99167 27.3264 4.86822 30.7315 8.27499C34.1365 11.6818 36.0121 16.2086 36.0121 21.0277C36.0121 21.3838 36.0023 21.7473 35.9802 22.1035C35.9778 22.1501 35.9753 22.2017 35.9704 22.2533C35.9679 22.2902 35.9655 22.327 35.963 22.3638V22.381C35.9581 22.4547 35.9508 22.5309 35.9434 22.6045C35.9385 22.666 35.9336 22.7323 35.9262 22.7986C35.9164 22.8919 35.9066 22.9902 35.8968 23.0884C35.8894 23.1449 35.8845 23.2063 35.8747 23.2702C35.8648 23.3488 35.855 23.4372 35.8427 23.5281C35.8354 23.5772 35.828 23.6263 35.8206 23.673C35.8108 23.7565 35.7961 23.8449 35.7814 23.9358C35.774 23.9825 35.7642 24.0365 35.7568 24.0881C35.7495 24.1323 35.7421 24.1765 35.7323 24.2207C35.7225 24.2772 35.7102 24.3435 35.6979 24.4074C35.6881 24.4639 35.6758 24.5253 35.6611 24.5867C35.6488 24.6555 35.6341 24.7267 35.6169 24.8004C35.5138 25.2916 35.3861 25.7878 35.2413 26.2668C35.2216 26.3331 35.202 26.4019 35.1774 26.4706C35.1603 26.5247 35.1431 26.5787 35.1259 26.6352C35.0228 26.952 34.9098 27.2689 34.7896 27.5759C34.7724 27.6177 34.7552 27.6619 34.738 27.7061C34.7184 27.7552 34.6987 27.8044 34.6791 27.8535C34.6545 27.9124 34.6275 27.9787 34.6005 28.0451C34.5809 28.0942 34.5563 28.1507 34.5318 28.2047L34.522 28.2293C34.4876 28.303 34.4557 28.3791 34.4213 28.4528C34.3968 28.5093 34.3722 28.5633 34.3452 28.6174C33.891 29.5998 33.3387 30.5479 32.7077 31.4371L32.6071 31.5771C32.5334 31.6778 32.4622 31.7736 32.391 31.8669C32.3567 31.9136 32.3198 31.9603 32.283 32.0069C32.2044 32.1101 32.1234 32.2108 32.0449 32.3091C31.9982 32.3655 31.9516 32.427 31.9025 32.4834C31.8607 32.535 31.8166 32.5891 31.7699 32.6431L31.7601 32.6529C31.711 32.7094 31.6619 32.7684 31.6103 32.8249C31.5539 32.8887 31.4974 32.955 31.4409 33.0189L33.5571 35.1386C37.0702 31.275 38.9999 26.279 38.9999 21.0252Z" fill="white"/>
<path d="M23.0154 32.8692L25.2642 35.1191C26.6979 34.3748 28.0064 33.4193 29.1578 32.2748C32.175 29.2757 33.8345 25.2819 33.8345 21.0277C33.8345 16.7932 32.1848 12.8092 29.1922 9.8151C26.1971 6.81852 22.2175 5.16794 17.9827 5.16794C17.8501 5.16794 17.7175 5.1704 17.585 5.17285C17.5187 5.17285 17.4548 5.17531 17.3886 5.17777H17.3812C17.283 5.18268 17.1872 5.18759 17.089 5.1925C17.0105 5.19742 16.9344 5.20233 16.8558 5.20724C16.8165 5.2097 16.7822 5.21215 16.7503 5.21461L16.6962 5.21952C16.6275 5.22443 16.5539 5.2318 16.4827 5.23917C16.4188 5.24654 16.3599 5.25145 16.2985 5.25882C16.2543 5.26373 16.2151 5.26865 16.1782 5.2711L16.1169 5.27847C16.1095 5.27847 16.1021 5.28093 16.0972 5.28093C16.0457 5.28584 15.9941 5.29321 15.9426 5.30058C15.7462 5.32514 15.5547 5.35461 15.3656 5.38409C15.3116 5.39391 15.2601 5.40128 15.2085 5.41111L15.1913 5.41356C15.1496 5.42093 15.1103 5.4283 15.071 5.43567L15.044 5.44058C14.9925 5.45041 14.9409 5.46023 14.8869 5.47006C14.7396 5.49708 14.5997 5.52655 14.4622 5.55848C14.3689 5.57813 14.2756 5.60269 14.1823 5.6248L14.1701 5.62725C14.1455 5.63217 14.1234 5.63708 14.0989 5.64445C14.0301 5.66164 13.9688 5.67884 13.9049 5.69357C13.8509 5.70831 13.8018 5.72059 13.7503 5.73533C13.7061 5.74761 13.6668 5.75743 13.6275 5.76971C13.5907 5.77954 13.5612 5.78936 13.5342 5.79673L13.5121 5.8041C13.4728 5.81393 13.4336 5.82621 13.3943 5.83849C13.328 5.85814 13.2715 5.87533 13.2151 5.89498C13.1684 5.90972 13.1291 5.922 13.085 5.93428C12.9524 5.97849 12.8198 6.02271 12.6897 6.06937C12.6529 6.08165 12.621 6.09394 12.5866 6.10622L12.5571 6.11604C12.5129 6.13324 12.4737 6.14552 12.4344 6.16271C12.3656 6.18727 12.3067 6.20938 12.2478 6.23394C12.1987 6.25359 12.157 6.27078 12.1128 6.28798C12.0318 6.31991 11.9581 6.34938 11.8845 6.38131L11.6635 6.47465C11.5948 6.50412 11.5285 6.5336 11.4622 6.56307C11.4254 6.58027 11.391 6.595 11.3566 6.60974L11.3247 6.62448C11.2707 6.64904 11.2167 6.67606 11.1627 6.70062C10.8288 6.86028 10.4998 7.02975 10.1832 7.21151C10.1463 7.23116 10.1169 7.24836 10.0825 7.26801C10.0138 7.30731 9.94257 7.34906 9.87628 7.38836L9.64797 7.52837C9.60132 7.55784 9.55222 7.58977 9.50312 7.61925C9.34109 7.72241 9.17661 7.83048 8.99985 7.95329C8.95321 7.98522 8.90902 8.01715 8.86483 8.04663L8.83537 8.06628C8.79363 8.09575 8.75681 8.12277 8.71998 8.14979L8.70525 8.15961C8.6807 8.17926 8.65615 8.19646 8.62915 8.21611L8.61933 8.22348C8.57268 8.25541 8.52849 8.28979 8.4843 8.32418C8.43275 8.36102 8.3861 8.40032 8.337 8.43717C8.30263 8.46418 8.27317 8.48629 8.24617 8.5084L8.2118 8.53542C8.1627 8.57471 8.11114 8.61401 8.06204 8.65577C8.00558 8.69998 7.95157 8.74665 7.89756 8.79086C7.80181 8.86946 7.70852 8.94806 7.61278 9.03157C7.58332 9.05613 7.55632 9.0807 7.52686 9.10771L9.64797 11.2299C11.9679 9.25017 14.9115 8.16453 17.9802 8.16453C25.0702 8.16453 30.8395 13.9366 30.8395 21.0302C30.8395 24.4885 29.4868 27.7332 27.0342 30.1673C25.8853 31.3045 24.5056 32.233 23.0154 32.8692Z" fill="#C8A35F"/>
</g>
<path d="M57.6875 13.9375V31H55.4609V13.9375H57.6875ZM63.1719 13.9375V15.7891H49.9883V13.9375H63.1719ZM66.6523 20.3125V31H64.4844V18.3203H66.5938L66.6523 20.3125ZM70.6133 18.25L70.6016 20.2656C70.4219 20.2266 70.25 20.2031 70.0859 20.1953C69.9297 20.1797 69.75 20.1719 69.5469 20.1719C69.0469 20.1719 68.6055 20.25 68.2227 20.4062C67.8398 20.5625 67.5156 20.7812 67.25 21.0625C66.9844 21.3438 66.7734 21.6797 66.6172 22.0703C66.4688 22.4531 66.3711 22.875 66.3242 23.3359L65.7148 23.6875C65.7148 22.9219 65.7891 22.2031 65.9375 21.5312C66.0938 20.8594 66.332 20.2656 66.6523 19.75C66.9727 19.2266 67.3789 18.8203 67.8711 18.5312C68.3711 18.2344 68.9648 18.0859 69.6523 18.0859C69.8086 18.0859 69.9883 18.1055 70.1914 18.1445C70.3945 18.1758 70.5352 18.2109 70.6133 18.25ZM79.625 28.832V22.3047C79.625 21.8047 79.5234 21.3711 79.3203 21.0039C79.125 20.6289 78.8281 20.3398 78.4297 20.1367C78.0312 19.9336 77.5391 19.832 76.9531 19.832C76.4062 19.832 75.9258 19.9258 75.5117 20.1133C75.1055 20.3008 74.7852 20.5469 74.5508 20.8516C74.3242 21.1562 74.2109 21.4844 74.2109 21.8359H72.043C72.043 21.3828 72.1602 20.9336 72.3945 20.4883C72.6289 20.043 72.9648 19.6406 73.4023 19.2812C73.8477 18.9141 74.3789 18.625 74.9961 18.4141C75.6211 18.1953 76.3164 18.0859 77.082 18.0859C78.0039 18.0859 78.8164 18.2422 79.5195 18.5547C80.2305 18.8672 80.7852 19.3398 81.1836 19.9727C81.5898 20.5977 81.793 21.3828 81.793 22.3281V28.2344C81.793 28.6562 81.8281 29.1055 81.8984 29.582C81.9766 30.0586 82.0898 30.4688 82.2383 30.8125V31H79.9766C79.8672 30.75 79.7812 30.418 79.7188 30.0039C79.6562 29.582 79.625 29.1914 79.625 28.832ZM80 23.3125L80.0234 24.8359H77.832C77.2148 24.8359 76.6641 24.8867 76.1797 24.9883C75.6953 25.082 75.2891 25.2266 74.9609 25.4219C74.6328 25.6172 74.3828 25.8633 74.2109 26.1602C74.0391 26.4492 73.9531 26.7891 73.9531 27.1797C73.9531 27.5781 74.043 27.9414 74.2227 28.2695C74.4023 28.5977 74.6719 28.8594 75.0312 29.0547C75.3984 29.2422 75.8477 29.3359 76.3789 29.3359C77.043 29.3359 77.6289 29.1953 78.1367 28.9141C78.6445 28.6328 79.0469 28.2891 79.3438 27.8828C79.6484 27.4766 79.8125 27.082 79.8359 26.6992L80.7617 27.7422C80.707 28.0703 80.5586 28.4336 80.3164 28.832C80.0742 29.2305 79.75 29.6133 79.3438 29.9805C78.9453 30.3398 78.4688 30.6406 77.9141 30.8828C77.3672 31.1172 76.75 31.2344 76.0625 31.2344C75.2031 31.2344 74.4492 31.0664 73.8008 30.7305C73.1602 30.3945 72.6602 29.9453 72.3008 29.3828C71.9492 28.8125 71.7734 28.1758 71.7734 27.4727C71.7734 26.793 71.9062 26.1953 72.1719 25.6797C72.4375 25.1562 72.8203 24.7227 73.3203 24.3789C73.8203 24.0273 74.4219 23.7617 75.125 23.582C75.8281 23.4023 76.6133 23.3125 77.4805 23.3125H80ZM87.3711 21.0273V31H85.2031V18.3203H87.2539L87.3711 21.0273ZM86.8555 24.1797L85.9531 24.1445C85.9609 23.2773 86.0898 22.4766 86.3398 21.7422C86.5898 21 86.9414 20.3555 87.3945 19.8086C87.8477 19.2617 88.3867 18.8398 89.0117 18.543C89.6445 18.2383 90.3438 18.0859 91.1094 18.0859C91.7344 18.0859 92.2969 18.1719 92.7969 18.3438C93.2969 18.5078 93.7227 18.7734 94.0742 19.1406C94.4336 19.5078 94.707 19.9844 94.8945 20.5703C95.082 21.1484 95.1758 21.8555 95.1758 22.6914V31H92.9961V22.668C92.9961 22.0039 92.8984 21.4727 92.7031 21.0742C92.5078 20.668 92.2227 20.375 91.8477 20.1953C91.4727 20.0078 91.0117 19.9141 90.4648 19.9141C89.9258 19.9141 89.4336 20.0273 88.9883 20.2539C88.5508 20.4805 88.1719 20.793 87.8516 21.1914C87.5391 21.5898 87.293 22.0469 87.1133 22.5625C86.9414 23.0703 86.8555 23.6094 86.8555 24.1797ZM105.852 27.6367C105.852 27.3242 105.781 27.0352 105.641 26.7695C105.508 26.4961 105.23 26.25 104.809 26.0312C104.395 25.8047 103.77 25.6094 102.934 25.4453C102.23 25.2969 101.594 25.1211 101.023 24.918C100.461 24.7148 99.9805 24.4688 99.582 24.1797C99.1914 23.8906 98.8906 23.5508 98.6797 23.1602C98.4688 22.7695 98.3633 22.3125 98.3633 21.7891C98.3633 21.2891 98.4727 20.8164 98.6914 20.3711C98.918 19.9258 99.2344 19.5312 99.6406 19.1875C100.055 18.8438 100.551 18.5742 101.129 18.3789C101.707 18.1836 102.352 18.0859 103.062 18.0859C104.078 18.0859 104.945 18.2656 105.664 18.625C106.383 18.9844 106.934 19.4648 107.316 20.0664C107.699 20.6602 107.891 21.3203 107.891 22.0469H105.723C105.723 21.6953 105.617 21.3555 105.406 21.0273C105.203 20.6914 104.902 20.4141 104.504 20.1953C104.113 19.9766 103.633 19.8672 103.062 19.8672C102.461 19.8672 101.973 19.9609 101.598 20.1484C101.23 20.3281 100.961 20.5586 100.789 20.8398C100.625 21.1211 100.543 21.418 100.543 21.7305C100.543 21.9648 100.582 22.1758 100.66 22.3633C100.746 22.543 100.895 22.7109 101.105 22.8672C101.316 23.0156 101.613 23.1562 101.996 23.2891C102.379 23.4219 102.867 23.5547 103.461 23.6875C104.5 23.9219 105.355 24.2031 106.027 24.5312C106.699 24.8594 107.199 25.2617 107.527 25.7383C107.855 26.2148 108.02 26.793 108.02 27.4727C108.02 28.0273 107.902 28.5352 107.668 28.9961C107.441 29.457 107.109 29.8555 106.672 30.1914C106.242 30.5195 105.727 30.7773 105.125 30.9648C104.531 31.1445 103.863 31.2344 103.121 31.2344C102.004 31.2344 101.059 31.0352 100.285 30.6367C99.5117 30.2383 98.9258 29.7227 98.5273 29.0898C98.1289 28.457 97.9297 27.7891 97.9297 27.0859H100.109C100.141 27.6797 100.312 28.1523 100.625 28.5039C100.938 28.8477 101.32 29.0938 101.773 29.2422C102.227 29.3828 102.676 29.4531 103.121 29.4531C103.715 29.4531 104.211 29.375 104.609 29.2188C105.016 29.0625 105.324 28.8477 105.535 28.5742C105.746 28.3008 105.852 27.9883 105.852 27.6367Z" fill="white"/>
<path d="M129.758 22.5039V28.75C129.547 29.0625 129.211 29.4141 128.75 29.8047C128.289 30.1875 127.652 30.5234 126.84 30.8125C126.035 31.0938 124.996 31.2344 123.723 31.2344C122.684 31.2344 121.727 31.0547 120.852 30.6953C119.984 30.3281 119.23 29.7969 118.59 29.1016C117.957 28.3984 117.465 27.5469 117.113 26.5469C116.77 25.5391 116.598 24.3984 116.598 23.125V21.8008C116.598 20.5273 116.746 19.3906 117.043 18.3906C117.348 17.3906 117.793 16.543 118.379 15.8477C118.965 15.1445 119.684 14.6133 120.535 14.2539C121.387 13.8867 122.363 13.7031 123.465 13.7031C124.77 13.7031 125.859 13.9297 126.734 14.3828C127.617 14.8281 128.305 15.4453 128.797 16.2344C129.297 17.0234 129.617 17.9219 129.758 18.9297H127.496C127.395 18.3125 127.191 17.75 126.887 17.2422C126.59 16.7344 126.164 16.3281 125.609 16.0234C125.055 15.7109 124.34 15.5547 123.465 15.5547C122.676 15.5547 121.992 15.6992 121.414 15.9883C120.836 16.2773 120.359 16.6914 119.984 17.2305C119.609 17.7695 119.328 18.4219 119.141 19.1875C118.961 19.9531 118.871 20.8164 118.871 21.7773V23.125C118.871 24.1094 118.984 24.9883 119.211 25.7617C119.445 26.5352 119.777 27.1953 120.207 27.7422C120.637 28.2812 121.148 28.6914 121.742 28.9727C122.344 29.2539 123.008 29.3945 123.734 29.3945C124.539 29.3945 125.191 29.3281 125.691 29.1953C126.191 29.0547 126.582 28.8906 126.863 28.7031C127.145 28.5078 127.359 28.3242 127.508 28.1523V24.332H123.559V22.5039H129.758ZM132.605 24.8008V24.5312C132.605 23.6172 132.738 22.7695 133.004 21.9883C133.27 21.1992 133.652 20.5156 134.152 19.9375C134.652 19.3516 135.258 18.8984 135.969 18.5781C136.68 18.25 137.477 18.0859 138.359 18.0859C139.25 18.0859 140.051 18.25 140.762 18.5781C141.48 18.8984 142.09 19.3516 142.59 19.9375C143.098 20.5156 143.484 21.1992 143.75 21.9883C144.016 22.7695 144.148 23.6172 144.148 24.5312V24.8008C144.148 25.7148 144.016 26.5625 143.75 27.3438C143.484 28.125 143.098 28.8086 142.59 29.3945C142.09 29.9727 141.484 30.4258 140.773 30.7539C140.07 31.0742 139.273 31.2344 138.383 31.2344C137.492 31.2344 136.691 31.0742 135.98 30.7539C135.27 30.4258 134.66 29.9727 134.152 29.3945C133.652 28.8086 133.27 28.125 133.004 27.3438C132.738 26.5625 132.605 25.7148 132.605 24.8008ZM134.773 24.5312V24.8008C134.773 25.4336 134.848 26.0312 134.996 26.5938C135.145 27.1484 135.367 27.6406 135.664 28.0703C135.969 28.5 136.348 28.8398 136.801 29.0898C137.254 29.332 137.781 29.4531 138.383 29.4531C138.977 29.4531 139.496 29.332 139.941 29.0898C140.395 28.8398 140.77 28.5 141.066 28.0703C141.363 27.6406 141.586 27.1484 141.734 26.5938C141.891 26.0312 141.969 25.4336 141.969 24.8008V24.5312C141.969 23.9062 141.891 23.3164 141.734 22.7617C141.586 22.1992 141.359 21.7031 141.055 21.2734C140.758 20.8359 140.383 20.4922 139.93 20.2422C139.484 19.9922 138.961 19.8672 138.359 19.8672C137.766 19.8672 137.242 19.9922 136.789 20.2422C136.344 20.4922 135.969 20.8359 135.664 21.2734C135.367 21.7031 135.145 22.1992 134.996 22.7617C134.848 23.3164 134.773 23.9062 134.773 24.5312ZM149.223 13V31H147.043V13H149.223ZM160.695 28.5391V13H162.875V31H160.883L160.695 28.5391ZM152.164 24.8008V24.5547C152.164 23.5859 152.281 22.707 152.516 21.918C152.758 21.1211 153.098 20.4375 153.535 19.8672C153.98 19.2969 154.508 18.8594 155.117 18.5547C155.734 18.2422 156.422 18.0859 157.18 18.0859C157.977 18.0859 158.672 18.2266 159.266 18.5078C159.867 18.7812 160.375 19.1836 160.789 19.7148C161.211 20.2383 161.543 20.8711 161.785 21.6133C162.027 22.3555 162.195 23.1953 162.289 24.1328V25.2109C162.203 26.1406 162.035 26.9766 161.785 27.7188C161.543 28.4609 161.211 29.0938 160.789 29.6172C160.375 30.1406 159.867 30.543 159.266 30.8242C158.664 31.0977 157.961 31.2344 157.156 31.2344C156.414 31.2344 155.734 31.0742 155.117 30.7539C154.508 30.4336 153.98 29.9844 153.535 29.4062C153.098 28.8281 152.758 28.1484 152.516 27.3672C152.281 26.5781 152.164 25.7227 152.164 24.8008ZM154.344 24.5547V24.8008C154.344 25.4336 154.406 26.0273 154.531 26.582C154.664 27.1367 154.867 27.625 155.141 28.0469C155.414 28.4688 155.762 28.8008 156.184 29.043C156.605 29.2773 157.109 29.3945 157.695 29.3945C158.414 29.3945 159.004 29.2422 159.465 28.9375C159.934 28.6328 160.309 28.2305 160.59 27.7305C160.871 27.2305 161.09 26.6875 161.246 26.1016V23.2773C161.152 22.8477 161.016 22.4336 160.836 22.0352C160.664 21.6289 160.438 21.2695 160.156 20.957C159.883 20.6367 159.543 20.3828 159.137 20.1953C158.738 20.0078 158.266 19.9141 157.719 19.9141C157.125 19.9141 156.613 20.0391 156.184 20.2891C155.762 20.5312 155.414 20.8672 155.141 21.2969C154.867 21.7188 154.664 22.2109 154.531 22.7734C154.406 23.3281 154.344 23.9219 154.344 24.5547Z" fill="#C8A35F"/>
<defs>
<clipPath id="clip0_104_430">
<rect width="39" height="46" fill="white"/>
</clipPath>
</defs>
</svg>
