<svg width="64" height="64" viewBox="0 0 64 64" fill="none" xmlns="http://www.w3.org/2000/svg">
<mask id="mask0_117_1107" style="mask-type:alpha" maskUnits="userSpaceOnUse" x="0" y="0" width="64" height="64">
<rect width="64" height="64" fill="#D9D9D9"/>
</mask>
<g mask="url(#mask0_117_1107)">
<path d="M24.308 45.3333C23.0804 45.3333 22.0556 44.9222 21.2333 44.1C20.4111 43.2778 20 42.2529 20 41.0253V12.308C20 11.0804 20.4111 10.0556 21.2333 9.23333C22.0556 8.41111 23.0804 8 24.308 8H45.0253C46.2529 8 47.2778 8.41111 48.1 9.23333C48.9222 10.0556 49.3333 11.0804 49.3333 12.308V41.0253C49.3333 42.2529 48.9222 43.2778 48.1 44.1C47.2778 44.9222 46.2529 45.3333 45.0253 45.3333H24.308ZM24.308 42.6667H45.0253C45.436 42.6667 45.8122 42.4958 46.154 42.154C46.4958 41.8122 46.6667 41.436 46.6667 41.0253V12.308C46.6667 11.8973 46.4958 11.5211 46.154 11.1793C45.8122 10.8376 45.436 10.6667 45.0253 10.6667H24.308C23.8973 10.6667 23.5211 10.8376 23.1793 11.1793C22.8376 11.5211 22.6667 11.8973 22.6667 12.308V41.0253C22.6667 41.436 22.8376 41.8122 23.1793 42.154C23.5211 42.4958 23.8973 42.6667 24.308 42.6667ZM16.308 53.3333C15.0804 53.3333 14.0556 52.9222 13.2333 52.1C12.4111 51.2778 12 50.2531 12 49.026V17.6413H14.6667V49.026C14.6667 49.4362 14.8376 49.8122 15.1793 50.154C15.5211 50.4958 15.8973 50.6667 16.308 50.6667H39.692V53.3333H16.308ZM26.8207 33.846H29.1793V21.846H33.4873V29.846H35.846V21.846H40.154V33.846H42.5127V21.5387C42.5127 20.9538 42.3169 20.4658 41.9253 20.0747C41.5342 19.6831 41.0462 19.4873 40.4613 19.4873H28.872C28.2871 19.4873 27.7991 19.6831 27.408 20.0747C27.0164 20.4658 26.8207 20.9538 26.8207 21.5387V33.846Z" fill="white"/>
</g>
</svg>
