<svg width="64" height="64" viewBox="0 0 64 64" fill="none" xmlns="http://www.w3.org/2000/svg">
<mask id="mask0_117_1152" style="mask-type:alpha" maskUnits="userSpaceOnUse" x="0" y="0" width="64" height="64">
<rect width="64" height="64" fill="#D9D9D9"/>
</mask>
<g mask="url(#mask0_117_1152)">
<path d="M32 32.3082L10.6667 18.3588V46.3588C10.6667 46.8375 10.8204 47.2308 11.128 47.5388C11.436 47.8464 11.8293 48.0002 12.308 48.0002H36V50.6668H12.308C11.0804 50.6668 10.0556 50.2557 9.23333 49.4335C8.41111 48.6113 8 47.5864 8 46.3588V17.6415C8 16.4139 8.41111 15.3891 9.23333 14.5668C10.0556 13.7446 11.0804 13.3335 12.308 13.3335H51.692C52.9196 13.3335 53.9444 13.7446 54.7667 14.5668C55.5889 15.3891 56 16.4139 56 17.6415V36.0002H53.3333V18.3588L32 32.3082ZM32 29.3335L52.5127 16.0002H11.4873L32 29.3335ZM49.6413 58.1028L47.8053 56.2668L53.2873 50.6668H40.308V48.0002H53.3387L47.7387 42.4002L49.6413 40.5642L58.41 49.3335L49.6413 58.1028ZM10.6667 18.3588V49.7948V36.0002V36.4568V16.0002V18.3588Z" fill="white"/>
</g>
</svg>
