<svg width="64" height="64" viewBox="0 0 64 64" fill="none" xmlns="http://www.w3.org/2000/svg">
<mask id="mask0_117_1170" style="mask-type:alpha" maskUnits="userSpaceOnUse" x="0" y="0" width="64" height="64">
<rect width="64" height="64" fill="#D9D9D9"/>
</mask>
<g mask="url(#mask0_117_1170)">
<path d="M32.0003 23.7078C35.7199 23.7078 39.5448 23.1556 43.475 22.0512C47.4048 20.9467 49.7508 19.7723 50.513 18.5278C49.785 17.2389 47.509 16.051 43.685 14.9638C39.861 13.8767 35.9661 13.3332 32.0003 13.3332C28.1612 13.3332 24.2885 13.8743 20.3823 14.9565C16.4765 16.0383 14.1441 17.2287 13.385 18.5278C14.1201 19.8167 16.4081 21.0023 20.249 22.0845C24.0899 23.1667 28.007 23.7078 32.0003 23.7078ZM30.139 50.6205C30.3439 51.1298 30.5728 51.6034 30.8257 52.0412C31.079 52.4785 31.3783 52.9092 31.7237 53.3332C28.6841 53.3229 25.8679 53.1085 23.275 52.6898C20.6817 52.2707 18.4577 51.6861 16.603 50.9358C14.7483 50.1852 13.2952 49.2852 12.2437 48.2358C11.1925 47.1861 10.667 46.0476 10.667 44.8205V18.6665C10.667 17.6443 11.2661 16.6512 12.4643 15.6872C13.6625 14.7232 15.2565 13.8718 17.2463 13.1332C19.2361 12.3945 21.5157 11.7987 24.085 11.3458C26.6543 10.8929 29.2928 10.6665 32.0003 10.6665C34.6737 10.6665 37.295 10.8929 39.8643 11.3458C42.4337 11.7987 44.7132 12.4029 46.703 13.1585C48.6928 13.9141 50.2952 14.7654 51.5103 15.7125C52.7259 16.6596 53.3337 17.6443 53.3337 18.6665C53.3337 19.5861 52.6919 20.5023 51.4083 21.4152C50.1243 22.3281 48.4619 23.1536 46.421 23.8918C44.3797 24.6305 42.0917 25.2263 39.557 25.6792C37.0219 26.1321 34.503 26.3585 32.0003 26.3585C28.291 26.3585 24.7937 25.9825 21.5083 25.2305C18.2225 24.4785 15.4977 23.4238 13.3337 22.0665V32.6972C15.2825 34.0683 17.7525 35.1145 20.7437 35.8358C23.7352 36.5572 26.9797 36.9776 30.477 37.0972C30.2925 37.4221 30.1148 37.7956 29.9437 38.2178C29.773 38.6401 29.6261 39.1452 29.503 39.7332C26.6994 39.5932 23.837 39.2256 20.9157 38.6305C17.9943 38.0358 15.467 37.0956 13.3337 35.8098V45.3332C14.2634 46.8203 16.2394 48.0356 19.2617 48.9792C22.2839 49.9227 25.9097 50.4698 30.139 50.6205ZM56.7797 58.6665L49.6823 51.6205C48.8757 52.1298 48.0072 52.5425 47.077 52.8585C46.1472 53.1749 45.1901 53.3332 44.2057 53.3332C41.6928 53.3332 39.5432 52.4401 37.757 50.6538C35.9703 48.8676 35.077 46.7181 35.077 44.2052C35.077 41.6923 35.9703 39.5427 37.757 37.7565C39.5432 35.9698 41.6928 35.0765 44.2057 35.0765C46.7186 35.0765 48.8681 35.9698 50.6543 37.7565C52.4405 39.5427 53.3337 41.6923 53.3337 44.2052C53.3337 45.1896 53.1926 46.1554 52.9103 47.1025C52.6286 48.0496 52.1817 48.9094 51.5697 49.6818L58.667 56.7792L56.7797 58.6665ZM44.2057 50.6665C46.0039 50.6665 47.5303 50.0392 48.785 48.7845C50.0397 47.5298 50.667 46.0034 50.667 44.2052C50.667 42.4069 50.0397 40.8803 48.785 39.6252C47.5303 38.3705 46.0039 37.7432 44.2057 37.7432C42.4074 37.7432 40.8808 38.3705 39.6257 39.6252C38.371 40.8803 37.7437 42.4069 37.7437 44.2052C37.7437 46.0034 38.371 47.5298 39.6257 48.7845C40.8808 50.0392 42.4074 50.6665 44.2057 50.6665Z" fill="white"/>
</g>
</svg>
