<svg width="64" height="64" viewBox="0 0 64 64" fill="none" xmlns="http://www.w3.org/2000/svg">
<mask id="mask0_117_1176" style="mask-type:alpha" maskUnits="userSpaceOnUse" x="0" y="0" width="64" height="64">
<rect width="64" height="64" fill="#D9D9D9"/>
</mask>
<g mask="url(#mask0_117_1176)">
<path d="M22.6667 21.3335V18.6668H41.3333V21.3335H22.6667ZM20.308 58.6668C19.0804 58.6668 18.0556 58.2557 17.2333 57.4335C16.4111 56.6113 16 55.5864 16 54.3588V9.6415C16 8.41394 16.4111 7.38905 17.2333 6.56683C18.0556 5.74461 19.0804 5.3335 20.308 5.3335H43.692C44.9196 5.3335 45.9444 5.74461 46.7667 6.56683C47.5889 7.38905 48 8.41394 48 9.6415V54.3588C48 55.5864 47.5889 56.6113 46.7667 57.4335C45.9444 58.2557 44.9196 58.6668 43.692 58.6668H20.308ZM18.6667 52.0002V54.3588C18.6667 54.7695 18.8376 55.1457 19.1793 55.4875C19.5211 55.8293 19.8973 56.0002 20.308 56.0002H43.692C44.1027 56.0002 44.4789 55.8293 44.8207 55.4875C45.1624 55.1457 45.3333 54.7695 45.3333 54.3588V52.0002H18.6667ZM18.6667 49.3335H45.3333V14.6668H18.6667V49.3335ZM18.6667 12.0002H45.3333V9.6415C45.3333 9.23083 45.1624 8.85461 44.8207 8.51283C44.4789 8.17105 44.1027 8.00016 43.692 8.00016H20.308C19.8973 8.00016 19.5211 8.17105 19.1793 8.51283C18.8376 8.85461 18.6667 9.23083 18.6667 9.6415V12.0002Z" fill="white"/>
</g>
</svg>
