<svg width="64" height="64" viewBox="0 0 64 64" fill="none" xmlns="http://www.w3.org/2000/svg">
<mask id="mask0_117_1212" style="mask-type:alpha" maskUnits="userSpaceOnUse" x="0" y="0" width="64" height="64">
<rect width="64" height="64" fill="#D9D9D9"/>
</mask>
<g mask="url(#mask0_117_1212)">
<path d="M14.975 53.3332C13.7817 53.3332 12.7652 52.9136 11.9257 52.0745C11.0865 51.235 10.667 50.2185 10.667 49.0252V14.9745C10.667 13.7812 11.0865 12.7647 11.9257 11.9252C12.7652 11.0861 13.7817 10.6665 14.975 10.6665H49.0257C50.219 10.6665 51.2354 11.0861 52.075 11.9252C52.9141 12.7647 53.3337 13.7812 53.3337 14.9745V22.8205H50.667V14.9745C50.667 14.4958 50.5132 14.1025 50.2057 13.7945C49.8977 13.4869 49.5043 13.3332 49.0257 13.3332H14.975C14.4963 13.3332 14.103 13.4869 13.795 13.7945C13.4874 14.1025 13.3337 14.4958 13.3337 14.9745V49.0252C13.3337 49.5038 13.4874 49.8972 13.795 50.2052C14.103 50.5127 14.4963 50.6665 14.975 50.6665H49.0257C49.5043 50.6665 49.8977 50.5127 50.2057 50.2052C50.5132 49.8972 50.667 49.5038 50.667 49.0252V41.1792H53.3337V49.0252C53.3337 50.2185 52.9141 51.235 52.075 52.0745C51.2354 52.9136 50.219 53.3332 49.0257 53.3332H14.975ZM36.3083 42.6665C35.115 42.6665 34.0985 42.2469 33.259 41.4078C32.4199 40.5683 32.0003 39.5518 32.0003 38.3585V25.6412C32.0003 24.4478 32.4199 23.4314 33.259 22.5918C34.0985 21.7527 35.115 21.3332 36.3083 21.3332H51.6923C52.8857 21.3332 53.9021 21.7527 54.7417 22.5918C55.5808 23.4314 56.0003 24.4478 56.0003 25.6412V38.3585C56.0003 39.5518 55.5808 40.5683 54.7417 41.4078C53.9021 42.2469 52.8857 42.6665 51.6923 42.6665H36.3083ZM51.6923 39.9998C52.171 39.9998 52.5643 39.8461 52.8723 39.5385C53.1799 39.2305 53.3337 38.8372 53.3337 38.3585V25.6412C53.3337 25.1625 53.1799 24.7692 52.8723 24.4612C52.5643 24.1536 52.171 23.9998 51.6923 23.9998H36.3083C35.8297 23.9998 35.4363 24.1536 35.1283 24.4612C34.8208 24.7692 34.667 25.1625 34.667 25.6412V38.3585C34.667 38.8372 34.8208 39.2305 35.1283 39.5385C35.4363 39.8461 35.8297 39.9998 36.3083 39.9998H51.6923ZM42.667 35.9998C43.7781 35.9998 44.7225 35.6109 45.5003 34.8332C46.2781 34.0554 46.667 33.1109 46.667 31.9998C46.667 30.8887 46.2781 29.9443 45.5003 29.1665C44.7225 28.3887 43.7781 27.9998 42.667 27.9998C41.5559 27.9998 40.6114 28.3887 39.8337 29.1665C39.0559 29.9443 38.667 30.8887 38.667 31.9998C38.667 33.1109 39.0559 34.0554 39.8337 34.8332C40.6114 35.6109 41.5559 35.9998 42.667 35.9998Z" fill="white"/>
</g>
</svg>
