<svg width="64" height="64" viewBox="0 0 64 64" fill="none" xmlns="http://www.w3.org/2000/svg">
<mask id="mask0_117_1194" style="mask-type:alpha" maskUnits="userSpaceOnUse" x="0" y="0" width="64" height="64">
<rect width="64" height="64" fill="#D9D9D9"/>
</mask>
<g mask="url(#mask0_117_1194)">
<path d="M24.4613 57.8515C22.4169 57.8515 20.6264 57.2326 19.09 55.9949C17.5531 54.7575 16.494 53.1713 15.9127 51.2362C15.3727 52.1353 14.6267 52.8233 13.6747 53.3002C12.7222 53.7771 11.7196 54.0155 10.6667 54.0155C8.81022 54.0155 7.23511 53.3673 5.94133 52.0709C4.64711 50.7749 4 49.2009 4 47.3489C4 45.7111 4.57089 44.2197 5.71267 42.8749C6.85444 41.5295 8.29556 40.8482 10.036 40.8308C9.14 40.0104 8.43133 39.0233 7.91 37.8695C7.38867 36.7157 7.128 35.5149 7.128 34.2669C7.128 32.7873 7.48956 31.4004 8.21267 30.1062C8.93578 28.8115 9.94867 27.7437 11.2513 26.9029C11.3727 27.2962 11.5362 27.7166 11.742 28.1642C11.9482 28.6122 12.1591 29.0157 12.3747 29.3749C11.5471 30.0002 10.9213 30.7457 10.4973 31.6115C10.0733 32.4769 9.86133 33.3842 9.86133 34.3335C9.86133 37.0957 10.8836 38.8769 12.928 39.6769C14.9724 40.4769 17.0769 41.0889 19.2413 41.5129L19.8413 42.5695C19.3524 43.9917 18.9558 45.1942 18.6513 46.1769C18.3469 47.16 18.1947 48.0686 18.1947 48.9029C18.1947 50.5642 18.7967 52.018 20.0007 53.2642C21.2047 54.5104 22.6744 55.1335 24.41 55.1335C26.3042 55.1335 27.8582 54.4206 29.072 52.9949C30.2853 51.5695 31.2818 49.8773 32.0613 47.9182C32.8409 45.9591 33.4453 43.9437 33.8747 41.8722C34.3036 39.8002 34.6633 38.1062 34.954 36.7902L37.59 37.5235C37.2242 39.284 36.7864 41.3335 36.2767 43.6722C35.7673 46.0104 35.0418 48.2266 34.1 50.3209C33.1582 52.4146 31.9224 54.1933 30.3927 55.6569C28.8624 57.12 26.8853 57.8515 24.4613 57.8515ZM10.6667 51.3489C11.764 51.3489 12.7051 50.9566 13.49 50.1722C14.2744 49.3873 14.6667 48.4462 14.6667 47.3489C14.6667 46.2515 14.2744 45.3104 13.49 44.5255C12.7051 43.7411 11.764 43.3489 10.6667 43.3489C9.56933 43.3489 8.62822 43.7411 7.84333 44.5255C7.05889 45.3104 6.66667 46.2515 6.66667 47.3489C6.66667 48.4462 7.05889 49.3873 7.84333 50.1722C8.62822 50.9566 9.56933 51.3489 10.6667 51.3489ZM26.882 40.3542C25.0771 38.7369 23.4267 37.2249 21.9307 35.8182C20.4351 34.4115 19.1429 33.032 18.054 31.6795C16.9651 30.3275 16.1284 28.9755 15.544 27.6235C14.9591 26.2711 14.6667 24.8633 14.6667 23.4002C14.6667 20.8864 15.5271 18.7691 17.248 17.0482C18.9689 15.3273 21.0862 14.4669 23.6 14.4669C24.0853 14.4669 24.5229 14.4951 24.9127 14.5515C25.3024 14.608 25.6718 14.6875 26.0207 14.7902C25.8087 14.38 25.6411 13.958 25.518 13.5242C25.3949 13.0909 25.3333 12.6357 25.3333 12.1589C25.3333 10.3073 25.9809 8.7333 27.276 7.43685C28.5711 6.14041 30.1438 5.49219 31.994 5.49219C33.8442 5.49219 35.4189 6.14041 36.718 7.43685C38.0171 8.7333 38.6667 10.3073 38.6667 12.1589C38.6667 12.6477 38.6051 13.1033 38.482 13.5255C38.3589 13.9477 38.1913 14.3642 37.9793 14.7749C38.3282 14.6722 38.6976 14.5951 39.0873 14.5435C39.4771 14.4924 39.9147 14.4669 40.4 14.4669C42.4169 14.4669 44.1793 15.0404 45.6873 16.1875C47.1949 17.3346 48.2291 18.7986 48.79 20.5795C48.3709 20.5146 47.8993 20.4822 47.3753 20.4822C46.8518 20.4822 46.3729 20.5095 45.9387 20.5642C45.4564 19.542 44.7273 18.7146 43.7513 18.0822C42.7753 17.4497 41.6658 17.1335 40.4227 17.1335C38.7493 17.1335 37.4196 17.5635 36.4333 18.4235C35.4471 19.2831 34.1642 20.6309 32.5847 22.4669H31.3487C29.7247 20.5762 28.4196 19.2146 27.4333 18.3822C26.4471 17.5497 25.1693 17.1335 23.6 17.1335C21.7933 17.1335 20.2973 17.7264 19.112 18.9122C17.9262 20.0975 17.3333 21.5935 17.3333 23.4002C17.3333 24.4335 17.5967 25.5004 18.1233 26.6009C18.6496 27.7013 19.4067 28.8626 20.3947 30.0849C21.3831 31.3071 22.5816 32.6071 23.99 33.9849C25.3984 35.3626 26.9967 36.8515 28.7847 38.4515L26.882 40.3542ZM32 16.1589C33.0973 16.1589 34.0384 15.7666 34.8233 14.9822C35.6078 14.1977 36 13.2566 36 12.1589C36 11.0615 35.6078 10.1206 34.8233 9.33619C34.0384 8.5513 33.0973 8.15885 32 8.15885C30.9027 8.15885 29.9616 8.5513 29.1767 9.33619C28.3922 10.1206 28 11.0615 28 12.1589C28 13.2566 28.3922 14.1977 29.1767 14.9822C29.9616 15.7666 30.9027 16.1589 32 16.1589ZM39.3693 57.9029C38.7364 57.9029 38.1109 57.8351 37.4927 57.6995C36.8744 57.5644 36.2778 57.3502 35.7027 57.0569C35.9498 56.7373 36.1969 56.3606 36.444 55.9269C36.6911 55.4931 36.9158 55.0935 37.118 54.7282C37.5127 54.8922 37.9076 55.0093 38.3027 55.0795C38.6973 55.1497 39.0922 55.1849 39.4873 55.1849C41.2171 55.1849 42.6964 54.5633 43.9253 53.3202C45.1547 52.0775 45.7693 50.6 45.7693 48.8875C45.7693 48.0533 45.6171 47.1533 45.3127 46.1875C45.0087 45.2217 44.6122 44.0277 44.1233 42.6055L44.7747 41.5489C46.9831 41.1249 49.0984 40.5044 51.1207 39.6875C53.1429 38.8702 54.154 37.0804 54.154 34.3182C54.154 32.1644 53.3958 30.5677 51.8793 29.5282C50.3633 28.4891 48.6564 27.9695 46.7587 27.9695C44.9667 27.9695 42.876 28.2737 40.4867 28.8822C38.0973 29.4906 35.3384 30.3162 32.21 31.3589L31.4767 28.7235C34.5331 27.7488 37.2844 26.918 39.7307 26.2309C42.1764 25.5437 44.4218 25.2002 46.4667 25.2002C49.1573 25.2002 51.5556 25.9917 53.6613 27.5749C55.7676 29.1575 56.8207 31.4053 56.8207 34.3182C56.8207 35.5515 56.5684 36.7231 56.064 37.8329C55.56 38.9426 54.86 39.942 53.964 40.8308C55.7044 40.8824 57.1456 41.5637 58.2873 42.8749C59.4291 44.186 60 45.6773 60 47.3489C60 49.1609 59.3529 50.7251 58.0587 52.0415C56.7649 53.3575 55.1898 54.0155 53.3333 54.0155C52.2804 54.0155 51.2778 53.7771 50.3253 53.3002C49.3733 52.8233 48.6273 52.1353 48.0873 51.2362C47.506 53.1713 46.4298 54.7662 44.8587 56.0209C43.288 57.2755 41.4582 57.9029 39.3693 57.9029ZM53.4 51.3489C54.4973 51.3489 55.4273 50.9566 56.19 50.1722C56.9522 49.3873 57.3333 48.4462 57.3333 47.3489C57.3333 46.2515 56.9411 45.2993 56.1567 44.4922C55.3718 43.6855 54.4307 43.2822 53.3333 43.2822C52.236 43.2822 51.2949 43.6744 50.51 44.4589C49.7256 45.2437 49.3333 46.1848 49.3333 47.2822C49.3333 48.3795 49.7367 49.3317 50.5433 50.1389C51.3504 50.9455 52.3027 51.3489 53.4 51.3489Z" fill="white"/>
</g>
</svg>
