<svg width="64" height="64" viewBox="0 0 64 64" fill="none" xmlns="http://www.w3.org/2000/svg">
<mask id="mask0_117_1206" style="mask-type:alpha" maskUnits="userSpaceOnUse" x="0" y="0" width="64" height="64">
<rect width="64" height="64" fill="#D9D9D9"/>
</mask>
<g mask="url(#mask0_117_1206)">
<path d="M32.0515 53.1278L28.9029 50.3485C24.7798 46.6734 21.3771 43.4974 18.6949 40.8205C16.0131 38.1436 13.8764 35.7538 12.2849 33.6512C10.6933 31.5485 9.57886 29.6323 8.94153 27.9025C8.30375 26.1727 7.98486 24.4223 7.98486 22.6512C7.98486 19.2596 9.13709 16.4143 11.4415 14.1152C13.7455 11.8161 16.5933 10.6665 19.9849 10.6665C22.3302 10.6665 24.5386 11.2665 26.6102 12.4665C28.6822 13.6665 30.496 15.4118 32.0515 17.7025C33.6413 15.4118 35.4549 13.6665 37.4922 12.4665C39.53 11.2665 41.7215 10.6665 44.0669 10.6665C47.4584 10.6665 50.3062 11.8161 52.6102 14.1152C54.9146 16.4143 56.0669 19.2596 56.0669 22.6512C56.0669 24.4223 55.748 26.1727 55.1102 27.9025C54.4729 29.6323 53.3584 31.5485 51.7669 33.6512C50.1753 35.7538 48.0386 38.1436 45.3569 40.8205C42.6746 43.4974 39.272 46.6734 35.1489 50.3485L32.0515 53.1278ZM12.4769 29.0252H51.6255C52.2686 27.8358 52.7251 26.7283 52.9949 25.7025C53.2651 24.6767 53.4002 23.6596 53.4002 22.6512C53.4002 19.9845 52.4951 17.7647 50.6849 15.9918C48.8746 14.2194 46.6686 13.3332 44.0669 13.3332C41.9438 13.3332 39.996 13.9358 38.2235 15.1412C36.4506 16.3461 34.7558 18.2049 33.1389 20.7178H30.9129C29.296 18.2049 27.6011 16.3461 25.8282 15.1412C24.0558 13.9358 22.108 13.3332 19.9849 13.3332C17.3831 13.3332 15.1771 14.2194 13.3669 15.9918C11.5566 17.7647 10.6515 19.9845 10.6515 22.6512C10.6515 23.6596 10.7951 24.6767 11.0822 25.7025C11.3693 26.7283 11.8342 27.8358 12.4769 29.0252ZM19.3795 37.7432H44.7235C45.8449 36.5774 46.8311 35.5014 47.6822 34.5152C48.5333 33.5289 49.2718 32.5878 49.8975 31.6918H14.1542C14.8138 32.5878 15.5693 33.5289 16.4209 34.5152C17.272 35.5014 18.2582 36.5774 19.3795 37.7432ZM32.0515 49.5178C34.0618 47.7538 35.8864 46.1238 37.5255 44.6278C39.1651 43.1323 40.6651 41.7263 42.0255 40.4098H22.0769C23.4378 41.7263 24.9378 43.1323 26.5769 44.6278C28.2164 46.1238 30.0413 47.7538 32.0515 49.5178Z" fill="white"/>
</g>
</svg>
