<svg width="188" height="94" viewBox="0 0 188 94" fill="none" xmlns="http://www.w3.org/2000/svg">
<path d="M14.0474 62.9341C11.3481 62.9341 8.94262 62.4504 6.83092 61.4829C4.71921 60.4964 3.0482 59.0451 1.8179 57.129C0.605968 55.1939 0 52.7846 0 49.901C0 47.4726 0.431523 45.4332 1.29457 43.7827C2.15761 42.1323 3.33283 40.8043 4.8202 39.7988C6.30758 38.7933 7.99695 38.0345 9.8883 37.5223C11.798 37.01 13.7996 36.6496 15.8929 36.4409C18.3535 36.1753 20.3367 35.9287 21.8424 35.701C23.3481 35.4544 24.4407 35.0939 25.1201 34.6197C25.7996 34.1454 26.1393 33.4435 26.1393 32.5139V32.3431C26.1393 30.5409 25.5884 29.1465 24.4866 28.16C23.4032 27.1735 21.8608 26.6802 19.8592 26.6802C17.7475 26.6802 16.0673 27.164 14.8187 28.1315C13.57 29.0801 12.7437 30.2753 12.3397 31.7171L1.48738 30.8065C2.03826 28.1505 3.12166 25.855 4.73757 23.9199C6.35349 21.9659 8.43765 20.4672 10.9901 19.4237C13.5608 18.3614 16.5356 17.8302 19.9143 17.8302C22.2647 17.8302 24.5142 18.1147 26.6626 18.6839C28.8294 19.253 30.7483 20.1352 32.4193 21.3304C34.1087 22.5255 35.44 24.0622 36.4132 25.9404C37.3864 27.7995 37.873 30.0286 37.873 32.6277V62.1089H26.7452V56.0476H26.4147C25.7353 57.4135 24.8263 58.6182 23.6879 59.6616C22.5494 60.6861 21.1813 61.4923 19.5838 62.0804C17.9862 62.6496 16.1408 62.9341 14.0474 62.9341ZM17.4078 54.5679C19.1339 54.5679 20.658 54.2169 21.9801 53.515C23.3022 52.7941 24.3397 51.8265 25.0926 50.6124C25.8455 49.3982 26.2219 48.0228 26.2219 46.4861V41.8477C25.8547 42.0943 25.3497 42.322 24.707 42.5306C24.0827 42.7204 23.3757 42.9006 22.5861 43.0713C21.7965 43.2231 21.0069 43.3654 20.2173 43.4982C19.4277 43.612 18.7116 43.7163 18.0689 43.8112C16.6917 44.0199 15.4889 44.3519 14.4606 44.8072C13.4323 45.2625 12.6335 45.8791 12.0643 46.6569C11.495 47.4157 11.2104 48.3643 11.2104 49.5026C11.2104 51.153 11.7888 52.4146 12.9457 53.2873C14.1209 54.141 15.6083 54.5679 17.4078 54.5679Z" fill="#1848DA"/>
<path d="M79.075 30.8634L68.3328 31.5463C68.1492 30.5978 67.7544 29.7441 67.1485 28.9852C66.5425 28.2074 65.7437 27.5908 64.7521 27.1355C63.7789 26.6613 62.6129 26.4241 61.254 26.4241C59.4361 26.4241 57.9028 26.8225 56.6542 27.6193C55.4055 28.3971 54.7812 29.4405 54.7812 30.7495C54.7812 31.793 55.1852 32.6751 55.9931 33.396C56.8011 34.1169 58.1875 34.6955 60.1523 35.1319L67.8095 36.7255C71.9227 37.5981 74.9893 39.002 77.0092 40.9371C79.0291 42.8721 80.0391 45.4143 80.0391 48.5635C80.0391 51.4281 79.2219 53.9418 77.5876 56.1045C75.9717 58.2672 73.7498 59.9557 70.922 61.1698C68.1125 62.365 64.8715 62.9626 61.1989 62.9626C55.5983 62.9626 51.1362 61.7579 47.8125 59.3486C44.5073 56.9203 42.57 53.6193 42.0008 49.4456L53.5417 48.8196C53.8906 50.5839 54.7353 51.9309 56.0758 52.8605C57.4162 53.7711 59.1331 54.2264 61.2265 54.2264C63.2831 54.2264 64.9358 53.8185 66.1844 53.0027C67.4514 52.168 68.0941 51.0961 68.1125 49.7871C68.0941 48.6868 67.6442 47.7857 66.7628 47.0837C65.8814 46.3628 64.5226 45.8127 62.6863 45.4332L55.3596 43.925C51.228 43.0713 48.1523 41.5916 46.1324 39.4858C44.1308 37.38 43.1301 34.6956 43.1301 31.4325C43.1301 28.6248 43.8646 26.2059 45.3336 24.176C46.821 22.1461 48.9051 20.581 51.5861 19.4807C54.2854 18.3803 57.4438 17.8302 61.0612 17.8302C66.4048 17.8302 70.6098 18.9969 73.6764 21.3304C76.7613 23.6638 78.5609 26.8415 79.075 30.8634Z" fill="#1848DA"/>
<path d="M84.3252 78.5V18.3993H95.8937V25.7412H96.417C96.9312 24.5649 97.6748 23.3698 98.6481 22.1556C99.6396 20.9225 100.925 19.898 102.504 19.0823C104.102 18.2475 106.085 17.8302 108.454 17.8302C111.539 17.8302 114.385 18.6649 116.992 20.3344C119.6 21.9849 121.684 24.4796 123.245 27.8185C124.806 31.1385 125.586 35.3026 125.586 40.311C125.586 45.1866 124.824 49.3034 123.3 52.6613C121.794 56.0002 119.738 58.5328 117.13 60.2592C114.541 61.9666 111.64 62.8203 108.426 62.8203C106.149 62.8203 104.212 62.4314 102.614 61.6536C101.035 60.8758 99.7406 59.8988 98.7307 58.7225C97.7207 57.5274 96.9495 56.3227 96.417 55.1085H96.0589V78.5H84.3252ZM95.811 40.2541C95.811 42.8532 96.1599 45.1202 96.8577 47.0553C97.5555 48.9903 98.5654 50.4985 99.8876 51.5799C101.21 52.6423 102.816 53.1735 104.708 53.1735C106.617 53.1735 108.233 52.6328 109.555 51.5514C110.878 50.4511 111.878 48.9334 112.558 46.9984C113.256 45.0443 113.604 42.7962 113.604 40.2541C113.604 37.7309 113.265 35.5113 112.585 33.5952C111.906 31.6791 110.905 30.1804 109.583 29.0991C108.261 28.0177 106.636 27.477 104.708 27.477C102.798 27.477 101.182 27.9987 99.86 29.0421C98.5563 30.0856 97.5555 31.5653 96.8577 33.4814C96.1599 35.3975 95.811 37.6551 95.811 40.2541Z" fill="#1848DA"/>
<path d="M130.306 62.1089V18.3993H142.04V62.1089H130.306ZM136.2 12.7649C134.456 12.7649 132.959 12.1673 131.711 10.9721C130.48 9.75794 129.865 8.30664 129.865 6.61821C129.865 4.94874 130.48 3.51642 131.711 2.32124C132.959 1.10708 134.456 0.5 136.2 0.5C137.945 0.5 139.432 1.10708 140.663 2.32124C141.911 3.51642 142.536 4.94874 142.536 6.61821C142.536 8.30664 141.911 9.75794 140.663 10.9721C139.432 12.1673 137.945 12.7649 136.2 12.7649Z" fill="#1848DA"/>
<path d="M163.927 62.8203C160.713 62.8203 157.803 61.9666 155.195 60.2592C152.606 58.5328 150.549 56.0002 149.025 52.6613C147.519 49.3034 146.767 45.1866 146.767 40.311C146.767 35.3026 147.547 31.1385 149.108 27.8185C150.669 24.4796 152.744 21.9849 155.333 20.3344C157.94 18.6649 160.796 17.8302 163.899 17.8302C166.268 17.8302 168.242 18.2475 169.821 19.0823C171.419 19.898 172.704 20.9225 173.677 22.1556C174.669 23.3698 175.422 24.5649 175.936 25.7412H176.294V3.82944H188V62.1089H176.432V55.1085H175.936C175.385 56.3227 174.604 57.5274 173.594 58.7225C172.603 59.8988 171.308 60.8758 169.711 61.6536C168.132 62.4314 166.204 62.8203 163.927 62.8203ZM167.645 53.1735C169.536 53.1735 171.134 52.6423 172.438 51.5799C173.76 50.4985 174.77 48.9903 175.467 47.0553C176.184 45.1202 176.542 42.8532 176.542 40.2541C176.542 37.6551 176.193 35.3975 175.495 33.4814C174.797 31.5653 173.787 30.0856 172.465 29.0421C171.143 27.9987 169.536 27.477 167.645 27.477C165.717 27.477 164.092 28.0177 162.77 29.0991C161.448 30.1804 160.447 31.6791 159.767 33.5952C159.088 35.5113 158.748 37.7309 158.748 40.2541C158.748 42.7962 159.088 45.0443 159.767 46.9984C160.465 48.9334 161.466 50.4511 162.77 51.5514C164.092 52.6328 165.717 53.1735 167.645 53.1735Z" fill="#1848DA"/>
<path d="M112.942 79.6165C112.942 82.2449 112.468 84.2034 111.52 85.492C110.582 86.7807 109.252 87.425 107.529 87.425C105.867 87.425 104.588 86.796 103.691 85.5381V93.5H101V70.5193H103.446L103.584 72.3602C104.491 70.9284 105.791 70.2125 107.483 70.2125C109.298 70.2125 110.653 70.8466 111.55 72.1148C112.447 73.383 112.911 75.2801 112.942 77.8062V79.6165ZM110.251 78.067C110.251 76.2057 109.965 74.8352 109.394 73.9557C108.824 73.0659 107.906 72.621 106.642 72.621C105.348 72.621 104.364 73.2705 103.691 74.5693V83.2062C104.354 84.4744 105.348 85.1085 106.673 85.1085C107.896 85.1085 108.793 84.6687 109.364 83.7892C109.945 82.8994 110.241 81.5443 110.251 79.7239V78.067Z" fill="black"/>
<path d="M123.066 87.1182C122.903 86.7602 122.786 86.1568 122.714 85.308C121.756 86.7193 120.533 87.425 119.045 87.425C117.546 87.425 116.374 87.0057 115.528 86.167C114.692 85.3182 114.274 84.1267 114.274 82.5926C114.274 80.9051 114.845 79.5653 115.986 78.5733C117.128 77.5812 118.693 77.075 120.681 77.0545H122.668V75.2903C122.668 74.2983 122.449 73.5926 122.011 73.1733C121.573 72.754 120.905 72.5443 120.008 72.5443C119.192 72.5443 118.53 72.7898 118.02 73.2807C117.51 73.7614 117.256 74.375 117.256 75.1216H114.549C114.549 74.2727 114.799 73.4648 115.298 72.6977C115.798 71.9205 116.471 71.3119 117.317 70.8722C118.163 70.4324 119.106 70.2125 120.145 70.2125C121.838 70.2125 123.122 70.6369 123.999 71.4858C124.885 72.3244 125.339 73.5517 125.359 75.1676V83.5437C125.37 84.8222 125.543 85.9318 125.879 86.8727V87.1182H123.066ZM119.457 84.9551C120.12 84.9551 120.752 84.771 121.353 84.4028C121.955 84.0347 122.393 83.5744 122.668 83.0222V79.0642H121.139C119.855 79.0847 118.841 79.3761 118.097 79.9386C117.352 80.4909 116.98 81.2682 116.98 82.2705C116.98 83.2114 117.169 83.8966 117.546 84.3261C117.923 84.7455 118.56 84.9551 119.457 84.9551Z" fill="black"/>
<path d="M134.52 73.0659C134.143 72.9943 133.735 72.9585 133.297 72.9585C131.911 72.9585 130.942 73.7205 130.392 75.2443V87.1182H127.685V70.5193H130.315L130.361 72.2068C131.085 70.8773 132.109 70.2125 133.435 70.2125C133.863 70.2125 134.22 70.2841 134.505 70.4273L134.52 73.0659Z" fill="black"/>
<path d="M139.66 66.5V70.5193H142.152V72.7131H139.66V83.0068C139.66 83.6614 139.767 84.1574 139.981 84.4949C140.195 84.8324 140.562 85.0011 141.082 85.0011C141.438 85.0011 141.8 84.9398 142.167 84.817L142.137 87.1182C141.525 87.3227 140.898 87.425 140.256 87.425C139.186 87.425 138.37 87.0415 137.81 86.2744C137.249 85.5074 136.969 84.4233 136.969 83.0222V72.7131H134.446V70.5193H136.969V66.5H139.66Z" fill="black"/>
<path d="M146.053 70.5193L146.129 72.3142C147.179 70.9131 148.52 70.2125 150.151 70.2125C153.076 70.2125 154.559 72.171 154.6 76.0881V87.1182H151.909V76.2108C151.909 74.9119 151.69 73.9915 151.252 73.4494C150.824 72.8972 150.176 72.621 149.31 72.621C148.637 72.621 148.03 72.846 147.49 73.296C146.96 73.746 146.532 74.3341 146.206 75.0602V87.1182H143.499V70.5193H146.053Z" fill="black"/>
<path d="M162.706 87.425C160.647 87.425 159.067 86.8114 157.966 85.5841C156.865 84.3466 156.304 82.5364 156.284 80.1534V78.1437C156.284 75.6687 156.819 73.7307 157.89 72.3295C158.97 70.9182 160.474 70.2125 162.4 70.2125C164.337 70.2125 165.784 70.8312 166.743 72.0687C167.701 73.3062 168.19 75.2341 168.211 77.8523V79.6318H158.975V80.0153C158.975 81.7949 159.306 83.0886 159.969 83.8966C160.642 84.7045 161.605 85.1085 162.859 85.1085C163.654 85.1085 164.352 84.9602 164.954 84.6636C165.565 84.3568 166.136 83.8761 166.666 83.2216L168.073 84.9398C166.901 86.5966 165.112 87.425 162.706 87.425ZM162.4 72.5443C161.279 72.5443 160.448 72.933 159.908 73.7102C159.368 74.4773 159.062 75.6739 158.99 77.3H165.504V76.9318C165.433 75.3568 165.147 74.2318 164.648 73.5568C164.159 72.8818 163.409 72.5443 162.4 72.5443Z" fill="black"/>
<path d="M176.423 73.0659C176.046 72.9943 175.638 72.9585 175.2 72.9585C173.814 72.9585 172.845 73.7205 172.295 75.2443V87.1182H169.589V70.5193H172.218L172.264 72.2068C172.988 70.8773 174.013 70.2125 175.338 70.2125C175.766 70.2125 176.123 70.2841 176.408 70.4273L176.423 73.0659Z" fill="black"/>
<path d="M185.294 82.8687C185.294 82.2858 185.074 81.7847 184.636 81.3653C184.198 80.946 183.352 80.4551 182.098 79.8926C180.64 79.2892 179.611 78.7727 179.009 78.3432C178.418 77.9136 177.975 77.4278 177.679 76.8858C177.383 76.3335 177.236 75.679 177.236 74.9222C177.236 73.5722 177.725 72.4523 178.703 71.5625C179.692 70.6625 180.951 70.2125 182.48 70.2125C184.091 70.2125 185.385 70.683 186.364 71.6239C187.343 72.5648 187.832 73.7716 187.832 75.2443H185.141C185.141 74.4977 184.891 73.8636 184.391 73.342C183.892 72.8102 183.255 72.5443 182.48 72.5443C181.685 72.5443 181.058 72.754 180.599 73.1733C180.151 73.5824 179.927 74.1347 179.927 74.8301C179.927 75.3824 180.09 75.8273 180.416 76.1648C180.752 76.5023 181.553 76.9472 182.817 77.4994C184.825 78.2869 186.191 79.0591 186.914 79.8159C187.638 80.5625 188 81.5136 188 82.6693C188 84.1114 187.506 85.267 186.517 86.1364C185.528 86.9955 184.203 87.425 182.541 87.425C180.819 87.425 179.422 86.929 178.352 85.9369C177.281 84.9449 176.746 83.6869 176.746 82.1631H179.468C179.499 83.0835 179.779 83.8045 180.309 84.3261C180.839 84.8477 181.583 85.1085 182.541 85.1085C183.438 85.1085 184.121 84.9091 184.59 84.5102C185.059 84.1011 185.294 83.554 185.294 82.8687Z" fill="black"/>
</svg>
