<svg width="156" height="77" viewBox="0 0 156 77" fill="none" xmlns="http://www.w3.org/2000/svg">
<path d="M11.6564 51.228C9.41654 51.228 7.42047 50.8311 5.66821 50.0372C3.91594 49.2278 2.52936 48.037 1.50847 46.4648C0.502825 44.8771 0 42.9002 0 40.5341C0 38.5417 0.358072 36.8683 1.07422 35.514C1.79036 34.1598 2.76554 33.0702 3.99974 32.2452C5.23395 31.4202 6.63576 30.7975 8.20519 30.3772C9.78985 29.957 11.4507 29.6612 13.1877 29.49C15.2295 29.272 16.8751 29.0697 18.1245 28.8829C19.374 28.6805 20.2806 28.3848 20.8444 27.9956C21.4081 27.6065 21.69 27.0305 21.69 26.2678V26.1277C21.69 24.6489 21.2329 23.5048 20.3187 22.6954C19.4197 21.8859 18.1398 21.4812 16.4789 21.4812C14.7267 21.4812 13.3325 21.8781 12.2964 22.672C11.2602 23.4503 10.5746 24.431 10.2393 25.614L1.23421 24.8668C1.69132 22.6876 2.59031 20.8041 3.93118 19.2163C5.27204 17.613 7.00145 16.3833 9.11941 15.5272C11.2526 14.6555 13.721 14.2196 16.5247 14.2196C18.475 14.2196 20.3415 14.4531 22.1243 14.9201C23.9223 15.3871 25.5145 16.1109 26.9011 17.0916C28.3029 18.0722 29.4076 19.3331 30.2152 20.8741C31.0228 22.3996 31.4265 24.2286 31.4265 26.3612V50.5509H22.1929V45.5775H21.9186C21.3548 46.6983 20.6006 47.6867 19.6559 48.5429C18.7112 49.3834 17.576 50.045 16.2504 50.5275C14.9248 50.9945 13.3934 51.228 11.6564 51.228ZM14.4448 44.3634C15.8771 44.3634 17.1418 44.0754 18.2388 43.4995C19.3359 42.9079 20.1968 42.1141 20.8215 41.1178C21.4462 40.1216 21.7586 38.9931 21.7586 37.7322V33.9263C21.4539 34.1287 21.0348 34.3155 20.5015 34.4867C19.9835 34.6423 19.3968 34.7902 18.7417 34.9303C18.0865 35.0548 17.4313 35.1716 16.7761 35.2806C16.1209 35.374 15.5266 35.4596 14.9933 35.5374C13.8505 35.7086 12.8525 35.981 11.9992 36.3546C11.1459 36.7282 10.4831 37.2341 10.0108 37.8723C9.53843 38.495 9.30226 39.2733 9.30226 40.2072C9.30226 41.5615 9.78223 42.5966 10.7422 43.3127C11.7173 44.0131 12.9515 44.3634 14.4448 44.3634Z" fill="#1848DA"/>
<path d="M65.6154 24.9135L56.7017 25.4739C56.5493 24.6956 56.2217 23.9951 55.7189 23.3725C55.2161 22.7343 54.5533 22.2284 53.7305 21.8548C52.9229 21.4656 51.9554 21.2711 50.8278 21.2711C49.3193 21.2711 48.047 21.598 47.0109 22.2517C45.9748 22.8899 45.4567 23.7461 45.4567 24.8201C45.4567 25.6763 45.7919 26.4001 46.4624 26.9916C47.1328 27.5831 48.2832 28.0579 49.9136 28.4159L56.2675 29.7235C59.6806 30.4395 62.2252 31.5914 63.9013 33.1791C65.5773 34.7669 66.4154 36.8527 66.4154 39.4367C66.4154 41.7872 65.7373 43.8497 64.3812 45.6242C63.0404 47.3988 61.1967 48.7841 58.8502 49.7804C56.5189 50.761 53.8295 51.2514 50.7821 51.2514C46.1348 51.2514 42.4322 50.2629 39.6742 48.286C36.9316 46.2936 35.3241 43.5851 34.8517 40.1605L44.4282 39.6468C44.7177 41.0945 45.4186 42.1997 46.5309 42.9624C47.6433 43.7096 49.0679 44.0832 50.805 44.0832C52.5115 44.0832 53.8829 43.7485 54.919 43.0792C55.9703 42.3943 56.5036 41.5148 56.5189 40.4407C56.5036 39.5379 56.1303 38.7985 55.3989 38.2225C54.6676 37.631 53.54 37.1796 52.0163 36.8683L45.9367 35.6308C42.5083 34.9303 39.9561 33.7162 38.28 31.9883C36.6192 30.2605 35.7888 28.0579 35.7888 25.3805C35.7888 23.0767 36.3983 21.0921 37.6172 19.4265C38.8514 17.7609 40.5809 16.4767 42.8055 15.5739C45.0453 14.671 47.6661 14.2196 50.6678 14.2196C55.1018 14.2196 58.5911 15.1769 61.1357 17.0916C63.6956 19.0062 65.1888 21.6135 65.6154 24.9135Z" fill="#1848DA"/>
<path d="M69.972 64V14.6866H79.5713V20.7107H80.0056C80.4322 19.7456 81.0493 18.7649 81.8569 17.7687C82.6797 16.7569 83.7463 15.9163 85.0567 15.247C86.3823 14.5621 88.0279 14.2196 89.9935 14.2196C92.5534 14.2196 94.9151 14.9045 97.0788 16.2744C99.2424 17.6286 100.972 19.6755 102.267 22.4152C103.562 25.1392 104.21 28.556 104.21 32.6654C104.21 36.6659 103.577 40.0438 102.313 42.799C101.063 45.5386 99.3567 47.6167 97.1931 49.0332C95.0446 50.4341 92.6372 51.1346 89.9707 51.1346C88.0813 51.1346 86.4737 50.8155 85.1481 50.1773C83.8377 49.5391 82.7635 48.7374 81.9255 47.7723C81.0874 46.7917 80.4475 45.8032 80.0056 44.807H79.7085V64H69.972ZM79.5028 32.6188C79.5028 34.7513 79.7923 36.6115 80.3713 38.1992C80.9503 39.7869 81.7883 41.0244 82.8854 41.9117C83.9825 42.7834 85.3157 43.2193 86.8851 43.2193C88.4698 43.2193 89.8107 42.7756 90.9077 41.8884C92.0048 40.9855 92.8352 39.7402 93.399 38.1525C93.978 36.5492 94.2675 34.7046 94.2675 32.6188C94.2675 30.5485 93.9856 28.7272 93.4219 27.1551C92.8581 25.5829 92.0277 24.3532 90.9306 23.4659C89.8335 22.5786 88.485 22.135 86.8851 22.135C85.3005 22.135 83.9596 22.5631 82.8625 23.4192C81.7807 24.2753 80.9503 25.4895 80.3713 27.0617C79.7923 28.6338 79.5028 30.4862 79.5028 32.6188Z" fill="#1848DA"/>
<path d="M108.126 50.5509V14.6866H117.863V50.5509H108.126ZM113.017 10.0635C111.57 10.0635 110.328 9.57315 109.292 8.59248C108.271 7.59625 107.761 6.40545 107.761 5.02007C107.761 3.65025 108.271 2.47501 109.292 1.49435C110.328 0.498116 111.57 0 113.017 0C114.465 0 115.699 0.498116 116.72 1.49435C117.756 2.47501 118.274 3.65025 118.274 5.02007C118.274 6.40545 117.756 7.59625 116.72 8.59248C115.699 9.57315 114.465 10.0635 113.017 10.0635Z" fill="#1848DA"/>
<path d="M136.024 51.1346C133.358 51.1346 130.943 50.4341 128.779 49.0332C126.63 47.6167 124.924 45.5386 123.659 42.799C122.41 40.0438 121.785 36.6659 121.785 32.6654C121.785 28.556 122.433 25.1392 123.728 22.4152C125.023 19.6755 126.745 17.6286 128.893 16.2744C131.057 14.9045 133.426 14.2196 136.001 14.2196C137.967 14.2196 139.605 14.5621 140.915 15.247C142.241 15.9163 143.307 16.7569 144.115 17.7687C144.938 18.7649 145.563 19.7456 145.989 20.7107H146.286V2.73185H156V50.5509H146.401V44.807H145.989C145.532 45.8032 144.885 46.7917 144.046 47.7723C143.224 48.7374 142.149 49.5391 140.824 50.1773C139.513 50.8155 137.914 51.1346 136.024 51.1346ZM139.11 43.2193C140.679 43.2193 142.005 42.7834 143.087 41.9117C144.184 41.0244 145.022 39.7869 145.601 38.1992C146.195 36.6115 146.492 34.7513 146.492 32.6188C146.492 30.4862 146.203 28.6338 145.624 27.0617C145.045 25.4895 144.206 24.2753 143.109 23.4192C142.012 22.5631 140.679 22.135 139.11 22.135C137.51 22.135 136.161 22.5786 135.064 23.4659C133.967 24.3532 133.137 25.5829 132.573 27.1551C132.009 28.7272 131.727 30.5485 131.727 32.6188C131.727 34.7046 132.009 36.5492 132.573 38.1525C133.152 39.7402 133.982 40.9855 135.064 41.8884C136.161 42.7756 137.51 43.2193 139.11 43.2193Z" fill="#1848DA"/>
<path d="M93.0201 65.6875C93.0201 67.8292 92.6224 69.425 91.827 70.475C91.0401 71.525 89.9239 72.05 88.4784 72.05C87.0842 72.05 86.0107 71.5375 85.2581 70.5125V77H83V58.275H85.0528L85.1683 59.775C85.9295 58.6083 87.02 58.025 88.4399 58.025C89.9624 58.025 91.0999 58.5417 91.8526 59.575C92.6053 60.6083 92.9945 62.1542 93.0201 64.2125V65.6875ZM90.7621 64.425C90.7621 62.9083 90.5226 61.7917 90.0436 61.075C89.5646 60.35 88.7948 59.9875 87.7342 59.9875C86.648 59.9875 85.8226 60.5167 85.2581 61.575V68.6125C85.814 69.6458 86.648 70.1625 87.7599 70.1625C88.7863 70.1625 89.539 69.8042 90.0179 69.0875C90.5055 68.3625 90.7535 67.2583 90.7621 65.775V64.425Z" fill="black"/>
<path d="M101.515 71.8C101.378 71.5083 101.28 71.0167 101.22 70.325C100.416 71.475 99.3896 72.05 98.1408 72.05C96.8835 72.05 95.8999 71.7083 95.1899 71.025C94.4886 70.3333 94.1379 69.3625 94.1379 68.1125C94.1379 66.7375 94.6169 65.6458 95.5748 64.8375C96.5328 64.0292 97.8457 63.6167 99.5136 63.6H101.181V62.1625C101.181 61.3542 100.998 60.7792 100.63 60.4375C100.262 60.0958 99.7018 59.925 98.9491 59.925C98.2648 59.925 97.7089 60.125 97.2812 60.525C96.8535 60.9167 96.6397 61.4167 96.6397 62.025H94.3688C94.3688 61.3333 94.5784 60.675 94.9975 60.05C95.4166 59.4167 95.9811 58.9208 96.691 58.5625C97.4009 58.2042 98.1921 58.025 99.0646 58.025C100.484 58.025 101.562 58.3708 102.298 59.0625C103.042 59.7458 103.422 60.7458 103.44 62.0625V68.8875C103.448 69.9292 103.594 70.8333 103.876 71.6V71.8H101.515ZM98.4872 70.0375C99.0432 70.0375 99.5735 69.8875 100.078 69.5875C100.583 69.2875 100.951 68.9125 101.181 68.4625V65.2375H99.8985C98.8208 65.2542 97.9697 65.4917 97.3454 65.95C96.721 66.4 96.4088 67.0333 96.4088 67.85C96.4088 68.6167 96.567 69.175 96.8835 69.525C97.1999 69.8667 97.7345 70.0375 98.4872 70.0375Z" fill="black"/>
<path d="M111.126 60.35C110.81 60.2917 110.468 60.2625 110.1 60.2625C108.937 60.2625 108.124 60.8833 107.662 62.125V71.8H105.391V58.275H107.598L107.636 59.65C108.244 58.5667 109.103 58.025 110.215 58.025C110.575 58.025 110.874 58.0833 111.113 58.2L111.126 60.35Z" fill="black"/>
<path d="M115.439 55V58.275H117.53V60.0625H115.439V68.45C115.439 68.9833 115.528 69.3875 115.708 69.6625C115.888 69.9375 116.196 70.075 116.632 70.075C116.931 70.075 117.235 70.025 117.543 69.925L117.517 71.8C117.004 71.9667 116.478 72.05 115.939 72.05C115.041 72.05 114.357 71.7375 113.886 71.1125C113.416 70.4875 113.181 69.6042 113.181 68.4625V60.0625H111.064V58.275H113.181V55H115.439Z" fill="black"/>
<path d="M120.803 58.275L120.867 59.7375C121.748 58.5958 122.873 58.025 124.241 58.025C126.696 58.025 127.941 59.6208 127.975 62.8125V71.8H125.717V62.9125C125.717 61.8542 125.533 61.1042 125.165 60.6625C124.806 60.2125 124.263 59.9875 123.536 59.9875C122.971 59.9875 122.462 60.1708 122.009 60.5375C121.564 60.9042 121.205 61.3833 120.931 61.975V71.8H118.66V58.275H120.803Z" fill="black"/>
<path d="M134.776 72.05C133.049 72.05 131.723 71.55 130.799 70.55C129.875 69.5417 129.405 68.0667 129.388 66.125V64.4875C129.388 62.4708 129.837 60.8917 130.735 59.75C131.642 58.6 132.903 58.025 134.52 58.025C136.145 58.025 137.359 58.5292 138.163 59.5375C138.967 60.5458 139.378 62.1167 139.395 64.25V65.7H131.646V66.0125C131.646 67.4625 131.924 68.5167 132.48 69.175C133.044 69.8333 133.853 70.1625 134.905 70.1625C135.572 70.1625 136.158 70.0417 136.662 69.8C137.175 69.55 137.654 69.1583 138.099 68.625L139.28 70.025C138.296 71.375 136.795 72.05 134.776 72.05ZM134.52 59.925C133.579 59.925 132.882 60.2417 132.428 60.875C131.975 61.5 131.719 62.475 131.659 63.8H137.124V63.5C137.064 62.2167 136.825 61.3 136.406 60.75C135.995 60.2 135.366 59.925 134.52 59.925Z" fill="black"/>
<path d="M146.286 60.35C145.97 60.2917 145.628 60.2625 145.26 60.2625C144.097 60.2625 143.284 60.8833 142.822 62.125V71.8H140.551V58.275H142.758L142.797 59.65C143.404 58.5667 144.263 58.025 145.375 58.025C145.735 58.025 146.034 58.0833 146.273 58.2L146.286 60.35Z" fill="black"/>
<path d="M153.729 68.3375C153.729 67.8625 153.545 67.4542 153.177 67.1125C152.81 66.7708 152.1 66.3708 151.048 65.9125C149.825 65.4208 148.961 65 148.456 64.65C147.96 64.3 147.588 63.9042 147.34 63.4625C147.092 63.0125 146.968 62.4792 146.968 61.8625C146.968 60.7625 147.378 59.85 148.199 59.125C149.029 58.3917 150.085 58.025 151.368 58.025C152.72 58.025 153.806 58.4083 154.627 59.175C155.448 59.9417 155.859 60.925 155.859 62.125H153.601C153.601 61.5167 153.391 61 152.972 60.575C152.553 60.1417 152.018 59.925 151.368 59.925C150.701 59.925 150.175 60.0958 149.79 60.4375C149.414 60.7708 149.226 61.2208 149.226 61.7875C149.226 62.2375 149.363 62.6 149.636 62.875C149.919 63.15 150.59 63.5125 151.651 63.9625C153.336 64.6042 154.482 65.2333 155.089 65.85C155.696 66.4583 156 67.2333 156 68.175C156 69.35 155.585 70.2917 154.756 71C153.926 71.7 152.814 72.05 151.42 72.05C149.974 72.05 148.802 71.6458 147.904 70.8375C147.006 70.0292 146.557 69.0042 146.557 67.7625H148.841C148.867 68.5125 149.102 69.1 149.547 69.525C149.991 69.95 150.616 70.1625 151.42 70.1625C152.172 70.1625 152.745 70 153.139 69.675C153.532 69.3417 153.729 68.8958 153.729 68.3375Z" fill="black"/>
</svg>
